<svg version="1.1" id="Ebene_1" xmlns="http://www.w3.org/2000/svg" xmlns:xlink="http://www.w3.org/1999/xlink" x="0px" y="0px"
	 viewBox="0 0 32 32" style="enable-background:new 0 0 32 32;" xml:space="preserve">
<style type="text/css">
	.st0{clip-path:url(#SVGID_2_);fill:#1D1D1B;}
	.st1{clip-path:url(#SVGID_2_);fill:#EB5C2B;}
	.st2{clip-path:url(#SVGID_2_);fill:#ED784F;}
	.st3{clip-path:url(#SVGID_2_);fill:#F2A185;}
</style>
<g>
	<defs>
		<rect id="SVGID_1_" x="0.8" width="30.2" height="31.9"/>
	</defs>
	<clipPath id="SVGID_2_">
		<use xlink:href="#SVGID_1_"  style="overflow:visible;"/>
	</clipPath>
	<path class="st0" d="M29.3,23.2c-0.1,0-0.1,0.1-0.2,0.1c-0.6,0.3-0.6,0.3-0.3,0.8c0.3,0.7,0.6,1.4,0.8,2.1c-0.2,0-0.3,0-0.5,0
		c0,0-0.1,0-0.1,0c-0.5,0-0.5,0-0.3,0.5c0.1,0.3,0.3,0.5,0.2,0.9c0,0.5,0,1-0.1,1.5c-0.2,0.4-0.4,0.8-0.7,1.2
		c-0.3,0.3-0.7,0.5-1,0.7c-0.1,0.2-0.2,0.2-0.4,0.3c-0.9,0.3-1.8,0.5-2.7,0.5c-2,0.1-3.9,0-5.9,0.1c-0.7,0-1.4-0.1-2.1-0.4
		c-0.2-0.1-0.5-0.1-0.7-0.1c-0.8,0.3-1.6,0.3-2.5,0.3c-1.7,0-3.5,0.1-5.2,0.1c-0.9,0-1.7-0.2-2.5-0.5c-0.1,0-0.2-0.1-0.3-0.2
		c-0.3-0.3-0.7-0.4-1-0.8c-0.2-0.3-0.4-0.5-0.5-0.8C3.2,29,3,28.4,3.1,27.7c0.1-0.5,0.2-1,0.4-1.5c-0.4,0-0.7,0-1,0.1
		c-0.1,0-0.3,0-0.2-0.2c0.2-0.3,0.2-0.6,0.3-0.8c0,0,0,0,0,0c0-0.2,0.1-0.3,0.1-0.5C2.8,24.5,3,24.3,3.1,24c0.2-0.4,0.2-0.4-0.2-0.6
		c0,0-0.1,0-0.1-0.1c-0.1-0.1-0.2-0.1-0.3-0.2c-0.1-0.1-0.2-0.1-0.3-0.2c0,0-0.1-0.1-0.1-0.1c-0.1-0.1-0.2-0.2-0.3-0.3
		c-0.3-0.3-0.3-0.3,0.1-0.7c0.2-0.2,0.5-0.4,0.7-0.7c0,0,0.1-0.1,0.1-0.1c0.2-0.1,0.4-0.3,0.5-0.5c0,0,0.1-0.1,0.1-0.2
		c0-0.1-0.1-0.2-0.1-0.3c0,0,0-0.1,0-0.1C3.1,19.7,3,19.3,3,18.9c0,0,0-0.1,0-0.1l0-0.2c0-0.1,0-0.2,0-0.4c0-0.2,0-0.4,0-0.5
		c0-0.4,0-0.9-0.1-1.3c0-0.2,0-0.5,0-0.7c0.1-0.3,0.1-0.6,0.1-0.9c0,0,0-0.1,0-0.1c0-0.1,0-0.2,0-0.4c0-0.2,0-0.4,0.1-0.6
		c0.1-0.4,0-0.8-0.2-1.2C2.5,12,2.3,11.5,2,11c-0.2-0.3-0.4-0.6-0.5-1C1.4,9.8,1.3,9.6,1.2,9.3c0-0.1-0.1-0.2,0-0.3
		C1.1,8.4,1,7.8,0.9,7.2c0-1.1-0.1-2.2,0.1-3.3c0-0.1,0-0.3,0.2-0.4c0.2-0.7,0.3-1.4,0.6-2C1.8,1.3,1.9,1.2,1.9,1
		c0.4-0.8,0.6-0.9,1.5-0.9c2.8,0.1,5.3,1,7.4,2.9c-0.3-0.7-0.6-1.5-0.9-2.3c1.1,0.5,2.1,0.9,3.1,1.4c0.9,0.4,1.8,0.8,2.7,1.2
		c0.2,0.1,0.4,0.1,0.6-0.1c1.3-1.1,2.5-2.2,3.8-3.2c0.1,0.2,0,0.4,0,0.6c0,1.1-0.1,2.3-0.1,3.4c0.2-0.2,0.4-0.4,0.5-0.5
		c1.9-2,4.2-3.1,7-3.3c0.5,0,1-0.1,1.5-0.1c0.2,0,0.3,0.1,0.4,0.2c0.4,0.4,0.7,1,0.8,1.6c0.2,0.6,0.3,1.2,0.5,1.8
		c0.2,0.3,0.1,0.6,0.2,1c0,0,0,0.1,0,0.1c0,0.1,0,0.3,0,0.4c0,0.1,0,0.2,0,0.3c0,0.2,0,0.4,0,0.6c0.1,0.5,0,1-0.1,1.5
		c-0.1,0.7-0.3,1.5-0.5,2.2c0,0.1,0,0.1-0.1,0.2c-0.1,0.2-0.1,0.3-0.2,0.5c-0.2,0.3-0.3,0.6-0.4,0.8c-0.1,0.1-0.1,0.2-0.2,0.3
		c0,0,0,0.1-0.1,0.1c-0.2,0.4-0.5,0.8-0.7,1.1c-0.1,0.1-0.2,0.2-0.2,0.4c0,0,0,0.1,0,0.1c0.1,0.4,0.2,0.9,0.3,1.3c0,0.1,0,0.1,0,0.2
		c0,0.3,0.2,0.6,0,0.9c0,1,0,1.9-0.1,2.9c-0.1,0.6-0.2,1.3-0.4,1.8c-0.1,0.2-0.1,0.3,0.1,0.4c0.3,0.3,0.6,0.6,0.9,0.8
		c0.1,0.1,0.2,0.2,0.3,0.3c0.2,0.1,0.4,0.2,0.4,0.4c0,0.3-0.3,0.4-0.5,0.5C29.5,23,29.4,23.1,29.3,23.2"/>
	<path class="st1" d="M27.1,24.6c-0.4-0.1-0.8,0-1.2-0.2c-1.5-0.7-3.1-1-4.8-1.1c-1.2-0.1-2.5-0.1-3.6,0.3c-1.7,0.5-3,1.5-3.5,3.2
		c-0.1,0.3-0.1,0.5-0.2,0.8c0,0.2-0.1,0.2-0.2,0.2c-0.9-0.2-1.9-0.5-2.7-0.9c-0.2-0.1-0.4-0.3-0.6-0.4c-0.8-0.6-1.6-0.6-2.5-0.4
		c-0.2,0.1-0.5,0.2-0.7,0.1c-0.3-0.1-0.2-0.4-0.3-0.6c-0.3-0.7-0.8-1.1-1.6-1c-0.1,0-0.2,0-0.4,0c0.2-0.4,0.5-0.8,0.4-1.3
		c-0.1-0.5-0.5-0.8-0.9-1c0.2-0.3,0.5-0.5,0.7-0.8c0.3-0.4,0.4-0.8,0.2-1.2c-0.6-1.5-0.6-3.1-0.5-4.7c0-0.8,0.2-1.6,0.4-2.4
		c0.1-0.3,0-0.6-0.2-0.9C4,11.2,3.3,10.2,2.9,9C2.3,7.3,2.4,5.7,2.7,4C2.8,3.3,3,2.7,3.2,2c0.1-0.2,0.2-0.3,0.4-0.3
		c2.4,0.1,4.5,1,6.3,2.7c0.4,0.4,0.9,0.9,1.4,1.3C11.5,5.8,11.7,6,11.9,6c0.7,0.1,1.2-0.3,1.2-1c0-0.4-0.2-0.8-0.3-1.3
		c0.7,0.3,1.3,0.6,2,0.9c0.3,0.1,0.6,0.3,0.9,0.4c0.4,0.2,0.7,0.1,1-0.1c0.4-0.4,0.8-0.7,1.3-1.1c0.1-0.1,0.2-0.2,0.4-0.3
		c0,0.3,0,0.5,0,0.7c0,0.3,0,0.6,0.1,0.8c0.2,0.8,1.1,1.5,2.1,0.7c0.5-0.4,0.8-0.8,1.2-1.2c1.3-1.3,2.9-2.2,4.7-2.6
		c0.5-0.1,1-0.1,1.5-0.2c0.3-0.1,0.5,0.1,0.6,0.4c0.4,1.3,0.7,2.6,0.7,3.9c0.1,1.4-0.2,2.8-0.9,4.1c-0.4,0.8-0.9,1.5-1.4,2.2
		c-0.2,0.3-0.3,0.7-0.2,1.1c0.5,1.9,0.6,3.7,0.3,5.6c-0.1,0.4-0.2,0.8-0.4,1.1c-0.3,0.5-0.2,0.9,0.1,1.4c0.2,0.2,0.3,0.4,0.5,0.6
		c0.1,0.1,0.1,0.2,0,0.3c-0.9,0.6-0.9,1-0.5,2C27.1,24.4,27.2,24.5,27.1,24.6"/>
	<path class="st2" d="M7.4,10.2c-0.2,0.4-0.5,0.7-0.7,1.1c-0.1,0.3-0.3,0.2-0.4,0c-0.6-0.5-1-1.1-1.4-1.7c-0.6-1-1.1-2.1-1.3-3.2
		C3.5,5.3,3.6,4.2,4,3.2C4,3,4.1,2.9,4.3,3c1.1,0.2,2,0.7,2.9,1.4c1.1,0.8,1.9,1.8,2.7,2.9c0.1,0.1,0.1,0.2,0,0.3
		C9.7,7.7,9.5,7.9,9.4,8C9.1,7.8,9,7.6,8.9,7.3C8.7,7,8.5,6.9,8.2,7C7.8,7.1,7.5,6.9,7.2,6.6C6.5,6.1,5.9,5.6,5.2,5
		C5.6,5.9,6,6.7,6.4,7.5C6.7,8.3,6.7,8.3,6,8.5c-0.1,0-0.2,0.1-0.4,0.1C5.7,8.8,5.9,8.9,6.1,9c0.4,0.3,0.7,0.6,1.1,0.9
		C7.3,10,7.4,10,7.4,10.2"/>
	<path class="st2" d="M22.4,8c-0.2-0.1-0.3-0.3-0.5-0.4c-0.2-0.1-0.2-0.2-0.1-0.4c1.1-1.3,2.2-2.6,3.6-3.5c0.6-0.4,1.3-0.7,2-0.8
		c0.2,0,0.2,0,0.3,0.1c0.3,1,0.4,1.9,0.3,2.9c-0.1,1-0.4,2-0.9,2.9c-0.5,0.9-1,1.7-1.7,2.3c-0.3,0.3-0.3,0.3-0.5-0.1
		c-0.2-0.3-0.4-0.7-0.6-1c0.2-0.3,0.5-0.4,0.7-0.6c0.4-0.3,0.8-0.6,1.2-0.9c-0.3-0.1-0.5-0.2-0.8-0.2c-0.3-0.1-0.3-0.2-0.2-0.5
		C25.7,7,26.1,6,26.6,5c-0.6,0.4-1,0.9-1.5,1.3c-0.1,0.1-0.3,0.2-0.4,0.4C24.4,6.9,24,7.1,23.6,7c-0.3-0.1-0.5,0.1-0.6,0.3
		C22.8,7.5,22.7,7.8,22.4,8"/>
	<path class="st0" d="M17,14.3c1,0,1.7,0.3,2.3,1c0.1,0.1,0.2,0.2,0.3,0c0.8-0.9,2.1-1.2,3.4-0.8c1.1,0.4,2,1.6,2,2.7
		c0,0.3,0,0.5-0.3,0.5c-0.3,0-0.4-0.2-0.5-0.4c-0.1-1-0.6-1.8-1.6-2.1c-1-0.3-2,0-2.6,0.8c-0.1,0.2-0.1,0.3-0.1,0.5
		c0.1,0.2,0.1,0.5,0.1,0.8c0,0.3-0.2,0.5-0.5,0.5c0,0-0.1,0-0.1,0c-0.7,0-0.7-0.1-0.6-0.8c0-0.2,0.2-0.5,0.1-0.7
		c-0.2-0.3-0.5-0.6-0.8-0.8c-1.5-0.9-3.2,0.1-3.4,1.8c0,0.1,0,0.2,0,0.2c-0.1,0.2-0.2,0.4-0.4,0.3c-0.2,0-0.3-0.2-0.3-0.4
		c0-1.3,0.7-2.7,2.4-3C16.6,14.3,16.8,14.3,17,14.3"/>
	<path class="st3" d="M22.4,8c0.1-0.2,0.3-0.5,0.4-0.7c0.3-0.4,0.4-0.5,0.8-0.4c0.3,0.1,0.5,0,0.7-0.2c0.7-0.6,1.4-1.2,2.1-1.8
		c0,0,0.1,0,0.2-0.1c-0.1,0.3-0.2,0.6-0.3,0.9c-0.3,0.8-0.7,1.5-1,2.3c-0.1,0.2,0,0.3,0.2,0.3c0.3,0.1,0.5,0.1,0.8,0.2
		c0.1,0,0.2,0.1,0.1,0.2c-0.6,0.5-1.3,1-2,1.5C23.8,9.4,23.1,8.7,22.4,8"/>
	<path class="st3" d="M7.4,10.2c-0.7-0.5-1.4-1-2.1-1.6C5.7,8.4,6,8.4,6.3,8.3C6.5,8.3,6.6,8.2,6.5,8C6,7,5.6,6,5.1,4.9
		c0,0-0.1-0.1,0-0.1c0.7,0.6,1.4,1.1,2.1,1.7c0.3,0.3,0.6,0.6,1.1,0.4c0.3-0.1,0.6,0,0.7,0.4C9.1,7.5,9.3,7.8,9.4,8
		C8.6,8.7,8,9.4,7.4,10.2"/>
</g>
</svg>