<svg version="1.1" id="Ebene_1" xmlns="http://www.w3.org/2000/svg" xmlns:xlink="http://www.w3.org/1999/xlink" x="0px" y="0px"
	 viewBox="0 0 32 32" style="enable-background:new 0 0 32 32;" xml:space="preserve">
<style type="text/css">
	.st0{clip-path:url(#SVGID_2_);fill:#FFFFFF;}
	.st1{clip-path:url(#SVGID_2_);fill:#EB5C2B;}
	.st2{clip-path:url(#SVGID_2_);fill:#ED784F;}
	.st3{clip-path:url(#SVGID_2_);fill:#F2A185;}
</style>
<g>
	<defs>
		<rect id="SVGID_1_" x="1.37" y="0.56" width="29.27" height="30.89"/>
	</defs>
	<clipPath id="SVGID_2_">
		<use xlink:href="#SVGID_1_"  style="overflow:visible;"/>
	</clipPath>
	<path class="st0" d="M28.88,23c-0.07,0.04-0.13,0.08-0.2,0.13c-0.61,0.25-0.61,0.25-0.33,0.81c0.33,0.65,0.54,1.34,0.79,2.02
		c-0.16,0.01-0.31,0.02-0.46,0.03c-0.03,0.02-0.06,0.03-0.09,0.03c-0.49,0-0.48,0-0.27,0.46c0.13,0.26,0.29,0.52,0.24,0.84
		c0.03,0.49,0.04,0.97-0.1,1.45c-0.17,0.42-0.4,0.79-0.7,1.13c-0.31,0.27-0.65,0.5-1,0.72c-0.08,0.15-0.22,0.2-0.37,0.26
		c-0.84,0.33-1.7,0.48-2.61,0.51c-1.9,0.07-3.8,0.04-5.7,0.06c-0.71,0.01-1.38-0.13-2.02-0.4c-0.24-0.1-0.46-0.13-0.7-0.05
		c-0.78,0.24-1.59,0.31-2.41,0.32c-1.68,0.03-3.36,0.06-5.04,0.09c-0.83,0.02-1.62-0.16-2.37-0.48c-0.11-0.05-0.22-0.11-0.25-0.24
		c-0.29-0.27-0.68-0.41-0.92-0.73c-0.17-0.24-0.34-0.48-0.52-0.73c-0.24-0.6-0.41-1.22-0.34-1.88c0.05-0.48,0.19-0.94,0.4-1.42
		c-0.36,0.02-0.67,0.05-0.98,0.07c-0.1-0.02-0.26-0.04-0.17-0.18c0.17-0.25,0.16-0.56,0.3-0.81c0-0.01,0-0.03,0-0.04
		c0-0.17,0.1-0.3,0.14-0.46c0.09-0.23,0.22-0.45,0.33-0.67c0.17-0.35,0.17-0.35-0.17-0.54c-0.04-0.02-0.07-0.04-0.11-0.07
		c-0.08-0.06-0.17-0.1-0.26-0.15c-0.09-0.06-0.17-0.14-0.27-0.2c-0.04-0.02-0.07-0.05-0.1-0.08c-0.09-0.09-0.18-0.18-0.28-0.27
		c-0.28-0.3-0.28-0.3,0.08-0.66c0.24-0.21,0.5-0.4,0.71-0.64c0.03-0.03,0.07-0.06,0.1-0.09c0.2-0.14,0.38-0.3,0.53-0.49
		c0.03-0.05,0.05-0.09,0.05-0.15c-0.01-0.11-0.06-0.21-0.1-0.32c-0.01-0.03-0.02-0.06-0.03-0.09c-0.13-0.41-0.23-0.82-0.27-1.25
		c0-0.03,0.01-0.07,0.03-0.09l-0.01-0.2c-0.05-0.11,0.01-0.24-0.05-0.35C3.39,18,3.39,17.83,3.38,17.66
		c-0.02-0.43-0.02-0.87-0.08-1.3c-0.01-0.22-0.01-0.44,0.01-0.66c0.07-0.27,0.06-0.55,0.07-0.83c0-0.04,0.01-0.07,0.02-0.1
		c0.04-0.11,0.05-0.23,0.05-0.35c0.03-0.21,0.04-0.42,0.11-0.61c0.14-0.43,0.04-0.78-0.21-1.14c-0.32-0.46-0.58-0.95-0.85-1.44
		c-0.21-0.3-0.39-0.61-0.5-0.95c-0.07-0.23-0.17-0.45-0.24-0.68c-0.03-0.1-0.09-0.21-0.02-0.32C1.61,8.68,1.47,8.09,1.4,7.49
		C1.36,6.41,1.31,5.34,1.52,4.28c0.03-0.13,0.05-0.26,0.17-0.34c0.18-0.65,0.31-1.32,0.56-1.95C2.31,1.84,2.36,1.7,2.42,1.56
		C2.79,0.78,3,0.66,3.86,0.68c2.73,0.06,5.12,0.98,7.21,2.78c-0.27-0.71-0.55-1.43-0.85-2.22c1.05,0.46,2.02,0.89,3,1.33
		c0.87,0.39,1.73,0.79,2.59,1.2c0.22,0.11,0.36,0.07,0.55-0.08c1.22-1.05,2.46-2.09,3.69-3.14c0.06,0.2,0.04,0.4,0.01,0.6
		c-0.04,1.09-0.07,2.18-0.11,3.34c0.19-0.2,0.34-0.37,0.5-0.53c1.84-1.93,4.1-2.99,6.76-3.22c0.48-0.04,0.96-0.06,1.45-0.05
		c0.16,0,0.27,0.06,0.37,0.17c0.42,0.43,0.63,0.97,0.8,1.53c0.17,0.57,0.31,1.16,0.46,1.74c0.17,0.29,0.15,0.62,0.22,0.93
		c0,0.04,0,0.07,0,0.11c0,0.12,0,0.24,0.04,0.36c0.02,0.11,0.03,0.21,0.03,0.32c0,0.18-0.01,0.37,0.05,0.55
		c0.08,0.49-0.04,0.96-0.06,1.44c-0.11,0.71-0.24,1.42-0.46,2.11c-0.02,0.06-0.05,0.13-0.08,0.19c-0.07,0.16-0.13,0.32-0.21,0.47
		c-0.15,0.27-0.26,0.55-0.43,0.81c-0.06,0.1-0.11,0.21-0.17,0.31c-0.02,0.04-0.05,0.08-0.07,0.11c-0.21,0.38-0.47,0.73-0.71,1.09
		c-0.08,0.12-0.17,0.23-0.16,0.38c0,0.03,0,0.06,0.01,0.1c0.12,0.43,0.2,0.86,0.3,1.29c0.01,0.05,0.02,0.11,0.02,0.16
		c-0.03,0.3,0.17,0.6-0.01,0.89c0.01,0.93,0.04,1.87-0.07,2.8c-0.07,0.61-0.18,1.22-0.41,1.79c-0.07,0.17-0.05,0.28,0.08,0.4
		c0.28,0.27,0.54,0.57,0.85,0.81c0.11,0.09,0.22,0.18,0.32,0.27c0.18,0.08,0.42,0.15,0.4,0.36c-0.02,0.24-0.26,0.38-0.47,0.49
		C29.14,22.79,29.01,22.89,28.88,23"/>
	<path class="st1" d="M26.81,24.4c-0.4-0.06-0.8,0-1.21-0.19c-1.47-0.68-3.05-0.97-4.66-1.07c-1.19-0.07-2.37-0.08-3.53,0.27
		c-1.63,0.48-2.86,1.43-3.41,3.1c-0.08,0.25-0.13,0.51-0.17,0.77c-0.02,0.15-0.08,0.18-0.22,0.15c-0.91-0.21-1.81-0.44-2.66-0.86
		c-0.21-0.1-0.38-0.26-0.57-0.39c-0.76-0.53-1.59-0.58-2.46-0.36c-0.23,0.06-0.49,0.2-0.7,0.14c-0.24-0.07-0.16-0.41-0.25-0.62
		c-0.28-0.68-0.82-1.03-1.55-0.97c-0.11,0.01-0.22,0.04-0.35,0c0.16-0.42,0.5-0.8,0.41-1.29c-0.09-0.49-0.46-0.75-0.89-0.99
		c0.22-0.26,0.44-0.5,0.64-0.75c0.29-0.35,0.36-0.76,0.19-1.18c-0.59-1.47-0.57-3.01-0.49-4.55c0.04-0.77,0.16-1.53,0.35-2.28
		c0.08-0.31-0.01-0.59-0.18-0.87c-0.66-1.04-1.35-2.06-1.78-3.23C2.76,7.66,2.84,6.06,3.15,4.45c0.13-0.67,0.3-1.33,0.53-1.97
		C3.75,2.27,3.86,2.2,4.09,2.21c2.36,0.11,4.4,0.96,6.1,2.61c0.44,0.42,0.84,0.87,1.32,1.25c0.17,0.14,0.36,0.26,0.58,0.3
		c0.64,0.12,1.13-0.28,1.15-0.94c0.01-0.42-0.15-0.81-0.26-1.27c0.67,0.31,1.29,0.59,1.92,0.88c0.3,0.14,0.6,0.27,0.9,0.41
		c0.37,0.17,0.7,0.13,1.01-0.13c0.41-0.35,0.82-0.7,1.23-1.05c0.11-0.09,0.22-0.17,0.35-0.29c0,0.25,0,0.45,0,0.65
		c-0.01,0.27-0.02,0.55,0.06,0.82c0.24,0.76,1.05,1.45,2.04,0.64c0.44-0.36,0.79-0.8,1.18-1.2c1.28-1.3,2.81-2.12,4.6-2.48
		c0.46-0.1,0.94-0.11,1.4-0.18c0.34-0.05,0.51,0.07,0.62,0.4c0.39,1.22,0.63,2.47,0.69,3.75c0.07,1.4-0.19,2.73-0.84,3.98
		c-0.38,0.73-0.84,1.42-1.32,2.09c-0.24,0.33-0.31,0.66-0.19,1.05c0.52,1.8,0.55,3.62,0.28,5.46c-0.06,0.38-0.16,0.75-0.34,1.1
		c-0.25,0.48-0.18,0.91,0.14,1.32c0.16,0.2,0.32,0.39,0.49,0.57c0.1,0.11,0.14,0.16-0.01,0.27c-0.83,0.6-0.92,0.96-0.46,1.9
		C26.76,24.18,26.84,24.26,26.81,24.4"/>
	<path class="st2" d="M7.75,10.4c-0.22,0.34-0.46,0.67-0.64,1.04c-0.14,0.29-0.28,0.16-0.41,0.04C6.16,11,5.73,10.44,5.36,9.82
		C4.77,8.85,4.33,7.82,4.14,6.68C3.98,5.64,4.06,4.63,4.4,3.64c0.05-0.16,0.12-0.23,0.34-0.2c1.07,0.15,1.95,0.69,2.78,1.33
		c1.03,0.79,1.85,1.77,2.65,2.78c0.1,0.13,0.12,0.23-0.01,0.33C9.97,8.04,9.79,8.19,9.6,8.34C9.4,8.14,9.29,7.87,9.15,7.62
		C9.01,7.36,8.8,7.23,8.53,7.32C8.09,7.46,7.8,7.24,7.5,6.98C6.89,6.45,6.25,5.94,5.59,5.38c0.4,0.86,0.74,1.68,1.12,2.48
		c0.33,0.69,0.34,0.69-0.38,0.9C6.22,8.8,6.09,8.81,5.95,8.9c0.15,0.17,0.33,0.29,0.5,0.41c0.36,0.27,0.71,0.55,1.07,0.83
		C7.61,10.21,7.73,10.26,7.75,10.4"/>
	<path class="st2" d="M22.27,8.28c-0.16-0.13-0.32-0.28-0.49-0.38c-0.19-0.11-0.15-0.22-0.05-0.35c1.03-1.29,2.11-2.53,3.53-3.4
		c0.6-0.37,1.24-0.66,1.95-0.74c0.16-0.02,0.23,0.01,0.27,0.14c0.31,0.93,0.42,1.87,0.3,2.85c-0.11,0.98-0.42,1.9-0.88,2.77
		c-0.44,0.84-0.98,1.61-1.68,2.26c-0.29,0.26-0.3,0.26-0.49-0.08c-0.19-0.33-0.41-0.65-0.61-0.97c0.17-0.27,0.45-0.41,0.69-0.6
		c0.37-0.29,0.75-0.56,1.14-0.9c-0.27-0.1-0.51-0.15-0.74-0.22c-0.3-0.09-0.33-0.16-0.2-0.45c0.42-0.91,0.82-1.83,1.27-2.81
		c-0.54,0.42-1,0.83-1.48,1.22c-0.14,0.11-0.28,0.21-0.4,0.34c-0.29,0.31-0.61,0.48-1.06,0.36c-0.28-0.08-0.47,0.05-0.62,0.31
		C22.61,7.86,22.54,8.15,22.27,8.28"/>
	<path class="st0" d="M16.96,14.35c0.93,0.04,1.68,0.33,2.27,0.97c0.13,0.14,0.19,0.17,0.34,0c0.8-0.91,2.07-1.2,3.26-0.77
		c1.1,0.39,1.92,1.5,1.98,2.65c0.01,0.26-0.03,0.48-0.32,0.52c-0.31,0.04-0.42-0.16-0.46-0.44c-0.13-0.97-0.59-1.69-1.56-2.01
		c-0.96-0.32-1.97,0.02-2.48,0.8c-0.1,0.15-0.13,0.29-0.06,0.46c0.1,0.24,0.12,0.49,0.14,0.74c0.02,0.31-0.16,0.48-0.46,0.45
		c-0.04,0-0.08-0.03-0.13-0.04c-0.65-0.03-0.72-0.13-0.63-0.79c0.03-0.22,0.2-0.44,0.08-0.67c-0.18-0.34-0.46-0.59-0.79-0.78
		c-1.47-0.83-3.11,0.05-3.26,1.73c-0.01,0.08-0.02,0.15-0.04,0.23c-0.05,0.23-0.2,0.34-0.43,0.31c-0.21-0.03-0.33-0.17-0.33-0.39
		c0.01-1.24,0.71-2.61,2.36-2.92C16.63,14.38,16.83,14.37,16.96,14.35"/>
	<path class="st3" d="M22.27,8.28c0.13-0.23,0.26-0.46,0.4-0.68c0.25-0.41,0.36-0.47,0.82-0.35c0.3,0.08,0.5-0.02,0.71-0.2
		c0.68-0.58,1.37-1.16,2.06-1.73c0.03-0.03,0.07-0.04,0.15-0.09c-0.07,0.34-0.22,0.59-0.33,0.86c-0.33,0.74-0.66,1.48-1.01,2.22
		c-0.1,0.2-0.01,0.24,0.15,0.29c0.24,0.07,0.49,0.13,0.73,0.2c0.1,0.03,0.23,0.07,0.08,0.18c-0.63,0.48-1.26,0.95-1.89,1.42
		C23.6,9.61,22.93,8.95,22.27,8.28"/>
	<path class="st3" d="M7.75,10.4C7.1,9.9,6.44,9.41,5.75,8.88c0.3-0.15,0.59-0.2,0.87-0.27c0.2-0.05,0.3-0.09,0.18-0.34
		C6.35,7.3,5.93,6.32,5.49,5.34c-0.02-0.04-0.05-0.07,0-0.14c0.66,0.55,1.33,1.1,1.98,1.66c0.31,0.27,0.59,0.53,1.07,0.38
		c0.3-0.1,0.54,0.03,0.68,0.35C9.33,7.84,9.54,8.06,9.6,8.34C8.89,8.94,8.31,9.66,7.75,10.4"/>
</g>
</svg>