<!-- Generator: Adobe Illustrator 25.2.1, SVG Export Plug-In . SVG Version: 6.00 Build 0)  -->
<svg version="1.1" id="Ebene_1" xmlns="http://www.w3.org/2000/svg" xmlns:xlink="http://www.w3.org/1999/xlink" x="0px" y="0px"
	 viewBox="0 0 603.3 351.9" style="enable-background:new 0 0 603.3 351.9;" xml:space="preserve">
<style type="text/css">
	.st0{clip-path:url(#SVGID_2_);fill:#FFFFFF;}
	.st1{clip-path:url(#SVGID_4_);fill:#636365;}
	.st2{clip-path:url(#SVGID_4_);fill:none;stroke:#1D1D1B;stroke-width:1.172;}
	.st3{clip-path:url(#SVGID_4_);fill:#2C2F33;}
	.st4{clip-path:url(#SVGID_4_);fill:#848688;}
	.st5{clip-path:url(#SVGID_6_);fill:#636365;}
	.st6{clip-path:url(#SVGID_6_);fill:none;stroke:#1D1D1B;stroke-width:1.172;}
	.st7{clip-path:url(#SVGID_6_);fill:#2C2F33;}
	.st8{clip-path:url(#SVGID_6_);fill:#848688;}
	.st9{fill:#636365;}
	.st10{fill:none;stroke:#1D1D1B;stroke-width:1.172;}
	.st11{clip-path:url(#SVGID_8_);fill:#636365;}
	.st12{clip-path:url(#SVGID_8_);fill:none;stroke:#1D1D1B;stroke-width:1.172;}
	.st13{clip-path:url(#SVGID_8_);fill:#2C2F33;}
	.st14{clip-path:url(#SVGID_8_);fill:#848688;}
	.st15{fill:#2C2F33;}
	.st16{clip-path:url(#SVGID_10_);fill:#636365;}
	.st17{clip-path:url(#SVGID_10_);fill:none;stroke:#1D1D1B;stroke-width:1.172;}
	.st18{clip-path:url(#SVGID_10_);fill:#848688;}
	.st19{clip-path:url(#SVGID_10_);fill:#2C2F33;}
	.st20{clip-path:url(#SVGID_12_);fill:#FF5A1F;}
	.st21{clip-path:url(#SVGID_12_);fill:none;stroke:#FFFFFF;stroke-width:9.518;}
	.st22{clip-path:url(#SVGID_14_);fill:#636365;}
	.st23{clip-path:url(#SVGID_14_);fill:none;stroke:#1D1D1B;stroke-width:1.172;}
	.st24{clip-path:url(#SVGID_14_);fill:#2C2F33;}
	.st25{clip-path:url(#SVGID_14_);fill:#848688;}
	.st26{clip-path:url(#SVGID_16_);fill:#FFFFFF;}
	.st27{clip-path:url(#SVGID_16_);fill:#EB5C2B;}
	.st28{clip-path:url(#SVGID_16_);fill:#ED784F;}
	.st29{clip-path:url(#SVGID_16_);fill:#F2A185;}
</style>
<g>
	<defs>
		<rect id="SVGID_1_" x="-9.3" y="-28" width="612.7" height="379.9"/>
	</defs>
	<clipPath id="SVGID_2_">
		<use xlink:href="#SVGID_1_"  style="overflow:visible;"/>
	</clipPath>
	<path class="st0" d="M517.2,316.3c-4.5,3.4-8,6.1-13.8,5.1c5.8-3.5,11.8-9.1,11.8-16.5c0-4-1.4-7.1-1.7-10.5
		c-0.3-2.5-0.8-3.4-3.5-3.4c-3.3,0-5,2.9-5.2,5.9L485,315c-0.7,0.7-2.2,2-2.2,3.2c0,0.8,0.6,1.7,1.5,1.7c0.8,0,1.5-0.6,2-1.2
		c1.6,6.6,8.4,10.1,14.4,10.4c7.3,0.4,17.2-7.9,22.7-13.4l-0.9-3.5L517.2,316.3z M504.8,301.8c0.5,3.1,0.9,5.5,1.2,7.5
		c-0.3,5.3-1.7,6.8-7.2,10.2c-1.7-2.4-3.7-5.2-7.1-5.4L504.8,301.8z M467.7,310.2c2.5-6,7.7-10.4,12.3-11.5c0.6-0.2,1.1,0.4,1.1,1
		C481.1,301.2,475.7,307.4,467.7,310.2 M491.5,310.8c-4.8,3.8-12.4,10.4-18.9,10.4c-2.9,0-5.9-1.2-5.6-4.6l0.2-2
		c17.4-5.7,21.9-12.4,21.9-16.9c0-3.6-3.6-4.4-6.5-4.4c-11.8-0.1-25,12.1-24.6,24c0.2,6,3.3,11.9,9.9,11.9c9,0,19-8.5,24.5-15
		L491.5,310.8z M442.8,306l0.2,0.2c-3.6,4.4-8.4,9.2-8.4,15.4c0,3.5,2.4,7,6.2,7c5.2,0,15.6-10.1,19.1-14l-0.6-3.4
		c-3,2.3-8.7,8.2-12.6,8.2c-1.4,0-2.8-1.1-2.8-2.5c0-3.6,4.5-8.1,7.1-10.4c2.1-1.7,3.8-3.1,3.8-5.9c-0.2-1.6-0.8-3.1-2.2-4.8
		c-0.9-1.1-5.9,0-14.4,1.2c0.4-0.8,0.6-1.6,0.6-2.5c0-0.8-0.7-1.5-1.6-1.5c-2.2,0-11.4,6.5-11.4,13.1c0,1.9,0.5,2.6,2.5,2.8
		c-1.7,2.5-3.6,4.7-6,6.6l0.4,4c3.9-3.9,7.7-6.3,10.9-11.3L442.8,306z M410.4,303.2c0.4,0.2-3.9,5.9-3.9,10.6c0,1.5,0.5,2.7,1.1,4.2
		c-2.1,1.9-4,3.6-7,3.6c-2.3,0-4-0.8-4-3.5c0-2.8,1.7-6.4,3.7-8.4C403.1,307.2,407.3,305.1,410.4,303.2 M427.1,310.3
		c-2.8,2.1-5.4,5.5-9.4,4.8c1.7-3.5,3.5-6.7,3.5-10.7c0-2.7-0.5-4.6-3.3-5.4c1-0.5,2.1-1.1,2.1-2.5c0-2.5-3-3.4-5-3.3
		c-5.5,0.3-12.1,2.7-17,6.7c-5.1,3.9-8.4,8.4-8.3,15.3c0.4,8.3,4.7,13,9.4,13c5.7,0,10.2-2.9,14-6.8c6.6,0,10.6-2.2,14.7-7.4
		L427.1,310.3z M368.6,306.9l0.2,0.2c-3.7,8-9,15.4-14.5,22.4c-8.9,4.4-17,12.4-16.7,18.5c0.1,2,1.1,3.8,3.4,3.8
		c6.2,0,19.9-14.9,23.6-20l14.6-9.9c12.4-8.4,11.7-9.1,11.9-13.1l-20,12.9l-0.2-0.2c7-11,12.7-18.9,16.6-26.8
		c0.4-0.7,1.3-2.3,1.3-3.2c0-1.2-1.3-1.9-2.3-2.5c-0.7-0.5-2.5-1.5-3.4-1.5c-0.8,0-1.5,0.6-2.1,1.2l-33.3,25.3
		c-1.5,1.2-4.3,2.8-6.2,2.8c-2,0-2.7-1.5-3.2-3.5c-1-4.5,15.2-26.7,42.3-34.7l0.2,0.2l-3.8,3.1c-0.6,0.5-2.5,1.7-2.5,2.6
		c0,0.7,0.5,1.3,1.2,1.3c0.8,0,2.6-0.1,15.2-8.3c1.8-1.2,3.7-2.5,3.7-4.9c0-1.7-0.6-4.5-1.6-5.8c-1-1.4-2-1.7-3.7-1.5
		c-25.1,2.8-41.5,15.6-47.8,22.5c-5.3,5.5-11.2,15.1-11.2,22.9c0,6.4,3,11.9,10.2,12.7c5.2,0.6,13.4-5.9,17.9-9.3L368.6,306.9z
		 M296.9,288.3c2-2.8,4.7-9.2,4.7-12.7c0-1.5-0.2-4-2.2-4c-4.6,0-16.4,21.6-18.7,26.1c-2.8,5.2-5.7,9.4-11.1,12.4
		c-2.6,1.5-5.1,2.5-5.1,6.1c0,2.3,1.2,3.6,2.6,5.2c-2.5,5.2-6.4,12.4-6.4,18.3c0,3,1.2,11.4,5.4,10.8c6.6-1,19.4-11,20.1-21.8
		c0.1-1.6,0.3-3.3-0.1-5c4.5-2.2,8.1-5.4,11.7-8.6l-1-3.4l-12.3,7.6c-1.2-2.6-2.1-5.6-4.7-7.2L296.9,288.3z M270.6,343
		c-1.4-2.6-2.2-5.2-1.8-8.1c0.4-3,1.8-6.3,4.2-10.3c2.2,0.8,3.6,0.9,6.5,0.7C280.3,332.1,276.2,339.2,270.6,343 M252.1,303.2
		c0.4,0.2-3.9,5.9-3.9,10.6c0,1.5,0.5,2.7,1.1,4.2c-2.1,1.9-4,3.6-7,3.6c-2.3,0-4-0.8-4-3.5c0-2.8,1.7-6.4,3.7-8.4
		C244.7,307.2,249,305.1,252.1,303.2 M268.8,310.3c-2.8,2.1-5.4,5.5-9.4,4.8c1.7-3.5,3.5-6.7,3.5-10.7c0-2.7-0.5-4.6-3.3-5.4
		c1-0.5,2.1-1.1,2.1-2.5c0-2.5-3-3.4-5-3.3c-5.5,0.3-12.1,2.7-17,6.7c-5.1,3.9-8.4,8.4-8.3,15.3c0.4,8.3,4.7,13,9.4,13
		c5.7,0,10.2-2.9,14-6.8c6.6,0,10.6-2.2,14.7-7.4L268.8,310.3z M179.4,327.1c-5,3.6-18.8,15.1-18.8,21.6c0,1.2,0.8,2.2,2.1,2.2
		c3.5,0,11.5-5.8,21.1-21l19.2-14.4l-0.5-3.8l-13.8,9.9l-0.2-0.2l6.8-12.7c0.6-1.2,1.9-3.3,1.9-4.6c0-1.5-1.6-4.6-3.5-4.6
		c-1.5,0-2.5,1.5-3.5,2.5l-9.7,10.7c-3.5,3.7-9,5.9-11.5,5.6c-0.8,0-1.4-0.2-1.5-0.9c-0.8-6.6,5.9-9.2,11.6-12.3l10.4-5.6
		c1.2-0.8,3-2.1,3-3.7c0-2-3.5-2.4-4.8-2.3c-7,0.6-26.8,10.3-26.8,22.2c0,4,1.7,10.6,6.8,10.6c5,0,14.5-8.3,17.8-11.9l0.2,0.2
		L179.4,327.1z M156.8,314.3c-1.6,1.4-5.6,4.5-7.8,4.5c-0.9,0-1.6-0.8-1.6-1.6c0-6.3,11.2-13.2,11.2-16.7c-0.3-1.9-0.8-3.5-1.4-4.9
		c-0.5-1.3-1.1-1.7-1.5-1.7c-2.6,0-19.4,11.2-26.6,20.4c-0.4,0.5-1.2,1.3-1.8,1.3c-0.5,0-1-0.5-1-1c0-2.2,11.4-11.4,11.4-14.9
		c0-0.5,0.5-1.8-5-2c-1.5,0-2.4,0.1-3.5,1.1c-5.3,4.5-11,13.6-10.7,19.9c0.1,3.1,1.1,8.8,5.1,8.8c2.5,0,5.8-4.5,7.2-6.2
		c4.1-5.3,8.7-10,14-13.9l0.2,0.2c-2.9,4.2-7.8,10.2-7.8,15.6c0,3.1,1.6,6,5.1,6c6.6,0,16-11.2,20.8-15.4l-0.7-4L156.8,314.3z
		 M115,294.6c3.9,0,7.3-4.5,7.3-8.1c0-1.6-1.4-2.8-3-2.8c-3.5,0-7.9,3.3-7.9,7C111.4,292.9,112.8,294.6,115,294.6 M119.3,312.5
		c-3.6,2.6-8.4,7.4-13.2,7.4c-4.2,0-5.5-2-4.8-5.7c3.8-2.6,12.8-10.7,12.8-15.3c0-2-2.5-2.5-4-2.5c-5.5,0-16.8,10.8-16.8,21.9
		c0,4.6,2.5,10.8,7.8,10.8c6.9,0,14.9-8.2,19-13.2L119.3,312.5z M31.9,322.6c-1,1.3-1.9,2.5-1.9,4.1c0,1.4,1.3,2,2.5,2
		c3.6,0,11.2-6.2,11.1-10.5l7.3-8.7l35.9,19.7c0.9,0.5,3.5,2,4.5,2c1.9,0,2.3-3.1,2.3-4.5c0-5.2-4.3-8-8.4-10.4l-23-13.4
		c-1.4-0.8-4.2-1.9-4.2-3.8c0-1.5,0.8-2.5,2.1-3.4l33.3-16.6c6.2,1.7,11.7-8,11.7-9.2c0-1-0.6-1.7-1.7-1.7c-1,0-4.5,1.6-5.5,2.1
		l-29,13.7l-0.2-0.2l4.6-6.7c0.9-1.4,2.3-3.2,2.3-4.8c0-1.7-1.6-3.8-2.6-5.1c-1.5-1.7-1.9-2.4-4.3-2.2c-13.9,0.7-27.5,7.4-32.2,9.1
		l-0.2-0.2c4.5-3.8,4.2-3.6,4.2-4.4c0-0.5-0.3-1-0.9-1c-1,0-2,0.8-2.8,1.4l-5,3.7c-3,2.3-3.8,2.5-5,6c-0.6,1.8-2.3,6.7-2.3,8.5
		c0,1.7,1.1,2.7,2.8,2.7c1.7,0,3.7-1,5.2-1.7c14.3-7,20.3-10.2,35.4-13.8l-8.8,13.8l-9.6,5c-2.8,1.5-5.7,3.5-5.7,7.1
		c0,1.6,0.6,2.5,1.5,3.8L31.9,322.6z"/>
</g>
<g>
	<defs>
		<rect id="SVGID_3_" x="165.7" y="111.4" width="50.2" height="146.1"/>
	</defs>
	<clipPath id="SVGID_4_">
		<use xlink:href="#SVGID_3_"  style="overflow:visible;"/>
	</clipPath>
	<path class="st1" d="M447.3,41.1c-2.7,1.1-4,4.2-2.9,6.9l11.1,27.4c1.1,2.7,4.2,4,6.9,2.9l38.3-15.5c2.7-1.1,4-4.2,2.9-6.9
		l-11.1-27.4c-1.1-2.7-4.2-4-6.9-2.9L447.3,41.1z"/>
	<path class="st2" d="M447.3,41.1c-2.7,1.1-4,4.2-2.9,6.9l11.1,27.4c1.1,2.7,4.2,4,6.9,2.9l38.3-15.5c2.7-1.1,4-4.2,2.9-6.9
		l-11.1-27.4c-1.1-2.7-4.2-4-6.9-2.9L447.3,41.1z"/>
	<path class="st3" d="M460.2,46.4c-1.4,0.6-2,2.1-1.5,3.5l5.7,14.2c0.6,1.4,2.1,2,3.5,1.5l19.8-8c1.4-0.6,2-2.1,1.5-3.5l-5.7-14.2
		c-0.6-1.4-2.1-2-3.5-1.5L460.2,46.4z"/>
	<path class="st2" d="M460.2,46.4c-1.4,0.6-2,2.1-1.5,3.5l5.7,14.2c0.6,1.4,2.1,2,3.5,1.5l19.8-8c1.4-0.6,2-2.1,1.5-3.5l-5.7-14.2
		c-0.6-1.4-2.1-2-3.5-1.5L460.2,46.4z"/>
	<path class="st4" d="M527.4,14l16.2,9.3c0,0-4.4,19.8-4.6,19.3c-0.2-0.5,46.5-36.3,46.5-36.3L527.4,14z"/>
	<path class="st1" d="M392.1,63.7c-2.7,1.1-4,4.2-2.9,6.9l11.1,27.4c1.1,2.7,4.2,4,6.9,2.9l38.3-15.5c2.7-1.1,4-4.2,2.9-6.9
		l-11.1-27.4c-1.1-2.7-4.2-4-6.9-2.9L392.1,63.7z"/>
	<path class="st2" d="M392.1,63.7c-2.7,1.1-4,4.2-2.9,6.9l11.1,27.4c1.1,2.7,4.2,4,6.9,2.9l38.3-15.5c2.7-1.1,4-4.2,2.9-6.9
		l-11.1-27.4c-1.1-2.7-4.2-4-6.9-2.9L392.1,63.7z"/>
	<path class="st3" d="M405,68.9c-1.4,0.6-2,2.1-1.5,3.5l5.7,14.2c0.6,1.4,2.1,2,3.5,1.5l19.8-8c1.4-0.6,2-2.1,1.5-3.5l-5.7-14.2
		c-0.6-1.4-2.1-2-3.5-1.5L405,68.9z"/>
	<path class="st2" d="M405,68.9c-1.4,0.6-2,2.1-1.5,3.5l5.7,14.2c0.6,1.4,2.1,2,3.5,1.5l19.8-8c1.4-0.6,2-2.1,1.5-3.5l-5.7-14.2
		c-0.6-1.4-2.1-2-3.5-1.5L405,68.9z"/>
	<path class="st1" d="M480.5,42.3c-3.1,1.2-4.5,4.7-3.3,7.8c1.2,3.1,4.7,4.5,7.8,3.3l37-15c3.1-1.2,4.5-4.7,3.3-7.8
		c-1.2-3.1-4.7-4.5-7.8-3.3L480.5,42.3z"/>
	<path class="st2" d="M480.5,42.3c-3.1,1.2-4.5,4.7-3.3,7.8c1.2,3.1,4.7,4.5,7.8,3.3l37-15c3.1-1.2,4.5-4.7,3.3-7.8
		c-1.2-3.1-4.7-4.5-7.8-3.3L480.5,42.3z"/>
	<path class="st1" d="M425.3,64.6c-3.1,1.2-4.5,4.7-3.3,7.8c1.2,3.1,4.7,4.5,7.8,3.3l37-15c3.1-1.2,4.5-4.7,3.3-7.8
		c-1.2-3.1-4.7-4.5-7.8-3.3L425.3,64.6z"/>
	<path class="st2" d="M425.3,64.6c-3.1,1.2-4.5,4.7-3.3,7.8c1.2,3.1,4.7,4.5,7.8,3.3l37-15c3.1-1.2,4.5-4.7,3.3-7.8
		c-1.2-3.1-4.7-4.5-7.8-3.3L425.3,64.6z"/>
	<path class="st4" d="M481.9,45.1c-1.6,0.6-2.4,2.5-1.7,4c0.6,1.6,2.5,2.4,4,1.7l36.6-14.8c1.6-0.6,2.4-2.5,1.7-4
		c-0.6-1.6-2.5-2.4-4-1.7L481.9,45.1z"/>
	<path class="st4" d="M426.8,67.3c-1.6,0.6-2.4,2.5-1.7,4c0.6,1.6,2.5,2.4,4,1.7l36.6-14.8c1.6-0.6,2.4-2.5,1.7-4
		c-0.6-1.6-2.5-2.4-4-1.7L426.8,67.3z"/>
	<path class="st1" d="M336.8,86c-2.7,1.1-4,4.2-2.9,6.9l11.1,27.4c1.1,2.7,4.2,4,6.9,2.9l38.3-15.5c2.7-1.1,4-4.2,2.9-6.9L382,73.5
		c-1.1-2.7-4.2-4-6.9-2.9L336.8,86z"/>
	<path class="st2" d="M336.8,86c-2.7,1.1-4,4.2-2.9,6.9l11.1,27.4c1.1,2.7,4.2,4,6.9,2.9l38.3-15.5c2.7-1.1,4-4.2,2.9-6.9L382,73.5
		c-1.1-2.7-4.2-4-6.9-2.9L336.8,86z"/>
	<path class="st3" d="M349.7,91.3c-1.4,0.6-2,2.1-1.5,3.5L354,109c0.6,1.4,2.1,2,3.5,1.5l19.8-8c1.4-0.6,2-2.1,1.5-3.5L373,84.8
		c-0.6-1.4-2.1-2-3.5-1.5L349.7,91.3z"/>
	<path class="st2" d="M349.7,91.3c-1.4,0.6-2,2.1-1.5,3.5L354,109c0.6,1.4,2.1,2,3.5,1.5l19.8-8c1.4-0.6,2-2.1,1.5-3.5L373,84.8
		c-0.6-1.4-2.1-2-3.5-1.5L349.7,91.3z"/>
	<path class="st1" d="M370.4,86.8c-3.1,1.2-4.5,4.7-3.3,7.8c1.2,3.1,4.7,4.5,7.8,3.3l37-15c3.1-1.2,4.5-4.7,3.3-7.8
		c-1.2-3.1-4.7-4.5-7.8-3.3L370.4,86.8z"/>
	<path class="st2" d="M370.4,86.8c-3.1,1.2-4.5,4.7-3.3,7.8c1.2,3.1,4.7,4.5,7.8,3.3l37-15c3.1-1.2,4.5-4.7,3.3-7.8
		c-1.2-3.1-4.7-4.5-7.8-3.3L370.4,86.8z"/>
	<path class="st4" d="M371.9,89.5c-1.6,0.6-2.4,2.5-1.7,4c0.6,1.6,2.5,2.4,4,1.7l36.6-14.8c1.6-0.6,2.4-2.5,1.7-4
		c-0.6-1.6-2.5-2.4-4-1.7L371.9,89.5z"/>
	<path class="st1" d="M281.6,108.4c-2.7,1.1-4,4.2-2.9,6.9l11.1,27.4c1.1,2.7,4.2,4,6.9,2.9l38.3-15.5c2.7-1.1,4-4.2,2.9-6.9
		l-11.1-27.4c-1.1-2.7-4.2-4-6.9-2.9L281.6,108.4z"/>
	<path class="st2" d="M281.6,108.4c-2.7,1.1-4,4.2-2.9,6.9l11.1,27.4c1.1,2.7,4.2,4,6.9,2.9l38.3-15.5c2.7-1.1,4-4.2,2.9-6.9
		l-11.1-27.4c-1.1-2.7-4.2-4-6.9-2.9L281.6,108.4z"/>
	<path class="st3" d="M294.4,113.6c-1.4,0.6-2,2.1-1.5,3.5l5.7,14.2c0.6,1.4,2.1,2,3.5,1.5l19.8-8c1.4-0.6,2-2.1,1.5-3.5l-5.7-14.2
		c-0.6-1.4-2.1-2-3.5-1.5L294.4,113.6z"/>
	<path class="st2" d="M294.4,113.6c-1.4,0.6-2,2.1-1.5,3.5l5.7,14.2c0.6,1.4,2.1,2,3.5,1.5l19.8-8c1.4-0.6,2-2.1,1.5-3.5l-5.7-14.2
		c-0.6-1.4-2.1-2-3.5-1.5L294.4,113.6z"/>
	<path class="st1" d="M315.5,109c-3.1,1.2-4.5,4.7-3.3,7.8c1.2,3.1,4.7,4.5,7.8,3.3l37-15c3.1-1.2,4.5-4.7,3.3-7.8
		c-1.2-3.1-4.7-4.5-7.8-3.3L315.5,109z"/>
	<path class="st2" d="M315.5,109c-3.1,1.2-4.5,4.7-3.3,7.8c1.2,3.1,4.7,4.5,7.8,3.3l37-15c3.1-1.2,4.5-4.7,3.3-7.8
		c-1.2-3.1-4.7-4.5-7.8-3.3L315.5,109z"/>
	<path class="st4" d="M317,111.7c-1.6,0.6-2.4,2.5-1.7,4c0.6,1.6,2.5,2.4,4,1.7l36.6-14.8c1.6-0.6,2.4-2.5,1.7-4
		c-0.6-1.6-2.5-2.4-4-1.7L317,111.7z"/>
	<path class="st1" d="M227.7,130.1c-2.7,1.1-4,4.2-2.9,6.9l11.1,27.4c1.1,2.7,4.2,4,6.9,2.9l38.3-15.5c2.7-1.1,4-4.2,2.9-6.9
		l-11.1-27.4c-1.1-2.7-4.2-4-6.9-2.9L227.7,130.1z"/>
	<path class="st2" d="M227.7,130.1c-2.7,1.1-4,4.2-2.9,6.9l11.1,27.4c1.1,2.7,4.2,4,6.9,2.9l38.3-15.5c2.7-1.1,4-4.2,2.9-6.9
		l-11.1-27.4c-1.1-2.7-4.2-4-6.9-2.9L227.7,130.1z"/>
	<path class="st3" d="M240.6,135.4c-1.4,0.6-2,2.1-1.5,3.5l5.7,14.2c0.6,1.4,2.1,2,3.5,1.5l19.8-8c1.4-0.6,2-2.1,1.5-3.5l-5.7-14.2
		c-0.6-1.4-2.1-2-3.5-1.5L240.6,135.4z"/>
	<path class="st2" d="M240.6,135.4c-1.4,0.6-2,2.1-1.5,3.5l5.7,14.2c0.6,1.4,2.1,2,3.5,1.5l19.8-8c1.4-0.6,2-2.1,1.5-3.5l-5.7-14.2
		c-0.6-1.4-2.1-2-3.5-1.5L240.6,135.4z"/>
	<path class="st1" d="M260.9,131.1c-3.1,1.2-4.5,4.7-3.3,7.8c1.2,3.1,4.7,4.5,7.8,3.3l37-15c3.1-1.2,4.5-4.7,3.3-7.8
		c-1.2-3.1-4.7-4.5-7.8-3.3L260.9,131.1z"/>
	<path class="st2" d="M260.9,131.1c-3.1,1.2-4.5,4.7-3.3,7.8c1.2,3.1,4.7,4.5,7.8,3.3l37-15c3.1-1.2,4.5-4.7,3.3-7.8
		c-1.2-3.1-4.7-4.5-7.8-3.3L260.9,131.1z"/>
	<path class="st4" d="M262.4,133.8c-1.6,0.6-2.4,2.5-1.7,4c0.6,1.6,2.5,2.4,4,1.7l36.6-14.8c1.6-0.6,2.4-2.5,1.7-4
		c-0.6-1.6-2.5-2.4-4-1.7L262.4,133.8z"/>
	<path class="st1" d="M172.4,152.5c-2.7,1.1-4,4.2-2.9,6.9l11.1,27.4c1.1,2.7,4.2,4,6.9,2.9l38.3-15.5c2.7-1.1,4-4.2,2.9-6.9
		l-11.1-27.4c-1.1-2.7-4.2-4-6.9-2.9L172.4,152.5z"/>
	<path class="st2" d="M172.4,152.5c-2.7,1.1-4,4.2-2.9,6.9l11.1,27.4c1.1,2.7,4.2,4,6.9,2.9l38.3-15.5c2.7-1.1,4-4.2,2.9-6.9
		l-11.1-27.4c-1.1-2.7-4.2-4-6.9-2.9L172.4,152.5z"/>
	<path class="st3" d="M185.3,157.7c-1.4,0.6-2,2.1-1.5,3.5l5.7,14.2c0.6,1.4,2.1,2,3.5,1.5l19.8-8c1.4-0.6,2-2.1,1.5-3.5l-5.7-14.2
		c-0.6-1.4-2.1-2-3.5-1.5L185.3,157.7z"/>
	<path class="st2" d="M185.3,157.7c-1.4,0.6-2,2.1-1.5,3.5l5.7,14.2c0.6,1.4,2.1,2,3.5,1.5l19.8-8c1.4-0.6,2-2.1,1.5-3.5l-5.7-14.2
		c-0.6-1.4-2.1-2-3.5-1.5L185.3,157.7z"/>
	<path class="st1" d="M206,153.2c-3.1,1.2-4.5,4.7-3.3,7.8c1.2,3.1,4.7,4.5,7.8,3.3l37-15c3.1-1.2,4.5-4.7,3.3-7.8
		c-1.2-3.1-4.7-4.5-7.8-3.3L206,153.2z"/>
	<path class="st2" d="M206,153.2c-3.1,1.2-4.5,4.7-3.3,7.8c1.2,3.1,4.7,4.5,7.8,3.3l37-15c3.1-1.2,4.5-4.7,3.3-7.8
		c-1.2-3.1-4.7-4.5-7.8-3.3L206,153.2z"/>
	<path class="st4" d="M207.5,156c-1.6,0.6-2.4,2.5-1.7,4c0.6,1.6,2.5,2.4,4,1.7l36.6-14.8c1.6-0.6,2.4-2.5,1.7-4
		c-0.6-1.6-2.4-2.4-4-1.7L207.5,156z"/>
	<path class="st1" d="M117.1,174.8c-2.7,1.1-4,4.2-2.9,6.9l11.1,27.4c1.1,2.7,4.2,4,6.9,2.9l38.3-15.5c2.7-1.1,4-4.2,2.9-6.9
		l-11.1-27.4c-1.1-2.7-4.2-4-6.9-2.9L117.1,174.8z"/>
	<path class="st2" d="M117.1,174.8c-2.7,1.1-4,4.2-2.9,6.9l11.1,27.4c1.1,2.7,4.2,4,6.9,2.9l38.3-15.5c2.7-1.1,4-4.2,2.9-6.9
		l-11.1-27.4c-1.1-2.7-4.2-4-6.9-2.9L117.1,174.8z"/>
	<path class="st3" d="M130,180c-1.4,0.6-2,2.1-1.5,3.5l5.7,14.2c0.6,1.4,2.1,2,3.5,1.5l19.8-8c1.4-0.6,2-2.1,1.5-3.5l-5.7-14.2
		c-0.6-1.4-2.1-2-3.5-1.5L130,180z"/>
	<path class="st2" d="M130,180c-1.4,0.6-2,2.1-1.5,3.5l5.7,14.2c0.6,1.4,2.1,2,3.5,1.5l19.8-8c1.4-0.6,2-2.1,1.5-3.5l-5.7-14.2
		c-0.6-1.4-2.1-2-3.5-1.5L130,180z"/>
	<path class="st1" d="M150.7,174.5c-3.1,1.2-4.5,4.7-3.3,7.8c1.2,3.1,4.7,4.5,7.8,3.3l37-15c3.1-1.2,4.5-4.7,3.3-7.8
		c-1.2-3.1-4.7-4.5-7.8-3.3L150.7,174.5z"/>
	<path class="st2" d="M150.7,174.5c-3.1,1.2-4.5,4.7-3.3,7.8c1.2,3.1,4.7,4.5,7.8,3.3l37-15c3.1-1.2,4.5-4.7,3.3-7.8
		c-1.2-3.1-4.7-4.5-7.8-3.3L150.7,174.5z"/>
	<path class="st4" d="M152.2,177.2c-1.6,0.6-2.4,2.5-1.7,4c0.6,1.6,2.5,2.4,4,1.7l36.6-14.8c1.6-0.6,2.4-2.5,1.7-4
		c-0.6-1.6-2.4-2.4-4-1.7L152.2,177.2z"/>
	<path class="st1" d="M60.9,196.4c-2.7,1.1-4,4.2-2.9,6.9L69,230.6c1.1,2.7,4.2,4,6.9,2.9l38.3-15.5c2.7-1.1,4-4.2,2.9-6.9
		l-11.1-27.4c-1.1-2.7-4.2-4-6.9-2.9L60.9,196.4z"/>
	<path class="st2" d="M60.9,196.4c-2.7,1.1-4,4.2-2.9,6.9L69,230.6c1.1,2.7,4.2,4,6.9,2.9l38.3-15.5c2.7-1.1,4-4.2,2.9-6.9
		l-11.1-27.4c-1.1-2.7-4.2-4-6.9-2.9L60.9,196.4z"/>
	<path class="st3" d="M73.8,201.6c-1.4,0.6-2,2.1-1.5,3.5l5.7,14.2c0.6,1.4,2.1,2,3.5,1.5l19.8-8c1.4-0.6,2-2.1,1.5-3.5l-5.7-14.2
		c-0.6-1.4-2.1-2-3.5-1.5L73.8,201.6z"/>
	<path class="st2" d="M73.8,201.6c-1.4,0.6-2,2.1-1.5,3.5l5.7,14.2c0.6,1.4,2.1,2,3.5,1.5l19.8-8c1.4-0.6,2-2.1,1.5-3.5l-5.7-14.2
		c-0.6-1.4-2.1-2-3.5-1.5L73.8,201.6z"/>
	<path class="st1" d="M94.8,197c-3.1,1.2-4.5,4.7-3.3,7.8s4.7,4.5,7.8,3.3l37-15c3.1-1.2,4.5-4.7,3.3-7.8c-1.2-3.1-4.7-4.5-7.8-3.3
		L94.8,197z"/>
	<path class="st2" d="M94.8,197c-3.1,1.2-4.5,4.7-3.3,7.8s4.7,4.5,7.8,3.3l37-15c3.1-1.2,4.5-4.7,3.3-7.8c-1.2-3.1-4.7-4.5-7.8-3.3
		L94.8,197z"/>
	<path class="st4" d="M96.3,199.7c-1.6,0.6-2.4,2.5-1.7,4c0.6,1.6,2.5,2.4,4,1.7l36.6-14.8c1.6-0.6,2.4-2.5,1.7-4
		c-0.6-1.6-2.4-2.4-4-1.7L96.3,199.7z"/>
	<path class="st1" d="M7,218.2c-2.7,1.1-4,4.2-2.9,6.9l11.1,27.4c1.1,2.7,4.2,4,6.9,2.9l38.3-15.5c2.7-1.1,4-4.2,2.9-6.9l-11.1-27.4
		c-1.1-2.7-4.2-4-6.9-2.9L7,218.2z"/>
	<path class="st2" d="M7,218.2c-2.7,1.1-4,4.2-2.9,6.9l11.1,27.4c1.1,2.7,4.2,4,6.9,2.9l38.3-15.5c2.7-1.1,4-4.2,2.9-6.9l-11.1-27.4
		c-1.1-2.7-4.2-4-6.9-2.9L7,218.2z"/>
	<path class="st3" d="M19.9,223.4c-1.4,0.6-2,2.1-1.5,3.5l5.7,14.2c0.6,1.4,2.1,2,3.5,1.5l19.8-8c1.4-0.6,2-2.1,1.5-3.5l-5.7-14.2
		c-0.6-1.4-2.1-2-3.5-1.5L19.9,223.4z"/>
	<path class="st2" d="M19.9,223.4c-1.4,0.6-2,2.1-1.5,3.5l5.7,14.2c0.6,1.4,2.1,2,3.5,1.5l19.8-8c1.4-0.6,2-2.1,1.5-3.5l-5.7-14.2
		c-0.6-1.4-2.1-2-3.5-1.5L19.9,223.4z"/>
	<path class="st1" d="M40.2,219.1c-3.1,1.2-4.5,4.7-3.3,7.8c1.2,3.1,4.7,4.5,7.8,3.3l37-15c3.1-1.2,4.5-4.7,3.3-7.8
		c-1.2-3.1-4.7-4.5-7.8-3.3L40.2,219.1z"/>
	<path class="st2" d="M40.2,219.1c-3.1,1.2-4.5,4.7-3.3,7.8c1.2,3.1,4.7,4.5,7.8,3.3l37-15c3.1-1.2,4.5-4.7,3.3-7.8
		c-1.2-3.1-4.7-4.5-7.8-3.3L40.2,219.1z"/>
	<path class="st4" d="M41.7,221.8c-1.6,0.6-2.4,2.4-1.7,4c0.6,1.6,2.5,2.4,4,1.7l36.6-14.8c1.6-0.6,2.4-2.5,1.7-4
		c-0.6-1.6-2.4-2.4-4-1.7L41.7,221.8z"/>
	<path class="st1" d="M-46.8,239.9c-2.7,1.1-4,4.2-2.9,6.9l11.1,27.4c1.1,2.7,4.2,4,6.9,2.9l38.3-15.5c2.7-1.1,4-4.2,2.9-6.9
		l-11.1-27.4c-1.1-2.7-4.2-4-6.9-2.9L-46.8,239.9z"/>
	<path class="st2" d="M-46.8,239.9c-2.7,1.1-4,4.2-2.9,6.9l11.1,27.4c1.1,2.7,4.2,4,6.9,2.9l38.3-15.5c2.7-1.1,4-4.2,2.9-6.9
		l-11.1-27.4c-1.1-2.7-4.2-4-6.9-2.9L-46.8,239.9z"/>
	<path class="st3" d="M-33.9,245.1c-1.4,0.6-2,2.1-1.5,3.5l5.7,14.2c0.6,1.4,2.1,2,3.5,1.5l19.8-8c1.4-0.6,2-2.1,1.5-3.5l-5.7-14.2
		c-0.6-1.4-2.1-2-3.5-1.5L-33.9,245.1z"/>
	<path class="st2" d="M-33.9,245.1c-1.4,0.6-2,2.1-1.5,3.5l5.7,14.2c0.6,1.4,2.1,2,3.5,1.5l19.8-8c1.4-0.6,2-2.1,1.5-3.5l-5.7-14.2
		c-0.6-1.4-2.1-2-3.5-1.5L-33.9,245.1z"/>
	<path class="st1" d="M-12.9,240.5c-3.1,1.2-4.5,4.7-3.3,7.8c1.2,3.1,4.7,4.5,7.8,3.3l37-15c3.1-1.2,4.5-4.7,3.3-7.8
		s-4.7-4.5-7.8-3.3L-12.9,240.5z"/>
	<path class="st2" d="M-12.9,240.5c-3.1,1.2-4.5,4.7-3.3,7.8c1.2,3.1,4.7,4.5,7.8,3.3l37-15c3.1-1.2,4.5-4.7,3.3-7.8
		s-4.7-4.5-7.8-3.3L-12.9,240.5z"/>
	<path class="st4" d="M-11.3,243.2c-1.6,0.6-2.4,2.5-1.7,4c0.6,1.6,2.5,2.4,4,1.7l36.6-14.8c1.6-0.6,2.4-2.5,1.7-4
		c-0.6-1.6-2.5-2.4-4-1.7L-11.3,243.2z"/>
</g>
<g>
	<defs>
		<rect id="SVGID_5_" x="333.1" y="14" width="50.2" height="210.7"/>
	</defs>
	<clipPath id="SVGID_6_">
		<use xlink:href="#SVGID_5_"  style="overflow:visible;"/>
	</clipPath>
	<path class="st5" d="M447.3,41.1c-2.7,1.1-4,4.2-2.9,6.9l11.1,27.4c1.1,2.7,4.2,4,6.9,2.9l38.3-15.5c2.7-1.1,4-4.2,2.9-6.9
		l-11.1-27.4c-1.1-2.7-4.2-4-6.9-2.9L447.3,41.1z"/>
	<path class="st6" d="M447.3,41.1c-2.7,1.1-4,4.2-2.9,6.9l11.1,27.4c1.1,2.7,4.2,4,6.9,2.9l38.3-15.5c2.7-1.1,4-4.2,2.9-6.9
		l-11.1-27.4c-1.1-2.7-4.2-4-6.9-2.9L447.3,41.1z"/>
	<path class="st7" d="M460.2,46.4c-1.4,0.6-2,2.1-1.5,3.5l5.7,14.2c0.6,1.4,2.1,2,3.5,1.5l19.8-8c1.4-0.6,2-2.1,1.5-3.5l-5.7-14.2
		c-0.6-1.4-2.1-2-3.5-1.5L460.2,46.4z"/>
	<path class="st6" d="M460.2,46.4c-1.4,0.6-2,2.1-1.5,3.5l5.7,14.2c0.6,1.4,2.1,2,3.5,1.5l19.8-8c1.4-0.6,2-2.1,1.5-3.5l-5.7-14.2
		c-0.6-1.4-2.1-2-3.5-1.5L460.2,46.4z"/>
	<path class="st8" d="M527.4,14l16.2,9.3c0,0-4.4,19.8-4.6,19.3c-0.2-0.5,46.5-36.3,46.5-36.3L527.4,14z"/>
	<path class="st5" d="M392.1,63.7c-2.7,1.1-4,4.2-2.9,6.9l11.1,27.4c1.1,2.7,4.2,4,6.9,2.9l38.3-15.5c2.7-1.1,4-4.2,2.9-6.9
		l-11.1-27.4c-1.1-2.7-4.2-4-6.9-2.9L392.1,63.7z"/>
	<path class="st6" d="M392.1,63.7c-2.7,1.1-4,4.2-2.9,6.9l11.1,27.4c1.1,2.7,4.2,4,6.9,2.9l38.3-15.5c2.7-1.1,4-4.2,2.9-6.9
		l-11.1-27.4c-1.1-2.7-4.2-4-6.9-2.9L392.1,63.7z"/>
	<path class="st7" d="M405,68.9c-1.4,0.6-2,2.1-1.5,3.5l5.7,14.2c0.6,1.4,2.1,2,3.5,1.5l19.8-8c1.4-0.6,2-2.1,1.5-3.5l-5.7-14.2
		c-0.6-1.4-2.1-2-3.5-1.5L405,68.9z"/>
	<path class="st6" d="M405,68.9c-1.4,0.6-2,2.1-1.5,3.5l5.7,14.2c0.6,1.4,2.1,2,3.5,1.5l19.8-8c1.4-0.6,2-2.1,1.5-3.5l-5.7-14.2
		c-0.6-1.4-2.1-2-3.5-1.5L405,68.9z"/>
	<path class="st5" d="M480.5,42.3c-3.1,1.2-4.5,4.7-3.3,7.8c1.2,3.1,4.7,4.5,7.8,3.3l37-15c3.1-1.2,4.5-4.7,3.3-7.8
		c-1.2-3.1-4.7-4.5-7.8-3.3L480.5,42.3z"/>
	<path class="st6" d="M480.5,42.3c-3.1,1.2-4.5,4.7-3.3,7.8c1.2,3.1,4.7,4.5,7.8,3.3l37-15c3.1-1.2,4.5-4.7,3.3-7.8
		c-1.2-3.1-4.7-4.5-7.8-3.3L480.5,42.3z"/>
	<path class="st5" d="M425.3,64.6c-3.1,1.2-4.5,4.7-3.3,7.8c1.2,3.1,4.7,4.5,7.8,3.3l37-15c3.1-1.2,4.5-4.7,3.3-7.8
		c-1.2-3.1-4.7-4.5-7.8-3.3L425.3,64.6z"/>
	<path class="st6" d="M425.3,64.6c-3.1,1.2-4.5,4.7-3.3,7.8c1.2,3.1,4.7,4.5,7.8,3.3l37-15c3.1-1.2,4.5-4.7,3.3-7.8
		c-1.2-3.1-4.7-4.5-7.8-3.3L425.3,64.6z"/>
	<path class="st8" d="M481.9,45.1c-1.6,0.6-2.4,2.5-1.7,4c0.6,1.6,2.5,2.4,4,1.7l36.6-14.8c1.6-0.6,2.4-2.5,1.7-4
		c-0.6-1.6-2.5-2.4-4-1.7L481.9,45.1z"/>
	<path class="st8" d="M426.8,67.3c-1.6,0.6-2.4,2.5-1.7,4c0.6,1.6,2.5,2.4,4,1.7l36.6-14.8c1.6-0.6,2.4-2.5,1.7-4
		c-0.6-1.6-2.5-2.4-4-1.7L426.8,67.3z"/>
	<path class="st5" d="M336.8,86c-2.7,1.1-4,4.2-2.9,6.9l11.1,27.4c1.1,2.7,4.2,4,6.9,2.9l38.3-15.5c2.7-1.1,4-4.2,2.9-6.9L382,73.5
		c-1.1-2.7-4.2-4-6.9-2.9L336.8,86z"/>
	<path class="st6" d="M336.8,86c-2.7,1.1-4,4.2-2.9,6.9l11.1,27.4c1.1,2.7,4.2,4,6.9,2.9l38.3-15.5c2.7-1.1,4-4.2,2.9-6.9L382,73.5
		c-1.1-2.7-4.2-4-6.9-2.9L336.8,86z"/>
	<path class="st7" d="M349.7,91.3c-1.4,0.6-2,2.1-1.5,3.5L354,109c0.6,1.4,2.1,2,3.5,1.5l19.8-8c1.4-0.6,2-2.1,1.5-3.5L373,84.8
		c-0.6-1.4-2.1-2-3.5-1.5L349.7,91.3z"/>
	<path class="st6" d="M349.7,91.3c-1.4,0.6-2,2.1-1.5,3.5L354,109c0.6,1.4,2.1,2,3.5,1.5l19.8-8c1.4-0.6,2-2.1,1.5-3.5L373,84.8
		c-0.6-1.4-2.1-2-3.5-1.5L349.7,91.3z"/>
	<path class="st5" d="M370.4,86.8c-3.1,1.2-4.5,4.7-3.3,7.8c1.2,3.1,4.7,4.5,7.8,3.3l37-15c3.1-1.2,4.5-4.7,3.3-7.8
		c-1.2-3.1-4.7-4.5-7.8-3.3L370.4,86.8z"/>
	<path class="st6" d="M370.4,86.8c-3.1,1.2-4.5,4.7-3.3,7.8c1.2,3.1,4.7,4.5,7.8,3.3l37-15c3.1-1.2,4.5-4.7,3.3-7.8
		c-1.2-3.1-4.7-4.5-7.8-3.3L370.4,86.8z"/>
	<path class="st8" d="M371.9,89.5c-1.6,0.6-2.4,2.5-1.7,4c0.6,1.6,2.5,2.4,4,1.7l36.6-14.8c1.6-0.6,2.4-2.5,1.7-4
		c-0.6-1.6-2.5-2.4-4-1.7L371.9,89.5z"/>
	<path class="st5" d="M281.6,108.4c-2.7,1.1-4,4.2-2.9,6.9l11.1,27.4c1.1,2.7,4.2,4,6.9,2.9l38.3-15.5c2.7-1.1,4-4.2,2.9-6.9
		l-11.1-27.4c-1.1-2.7-4.2-4-6.9-2.9L281.6,108.4z"/>
	<path class="st6" d="M281.6,108.4c-2.7,1.1-4,4.2-2.9,6.9l11.1,27.4c1.1,2.7,4.2,4,6.9,2.9l38.3-15.5c2.7-1.1,4-4.2,2.9-6.9
		l-11.1-27.4c-1.1-2.7-4.2-4-6.9-2.9L281.6,108.4z"/>
	<path class="st7" d="M294.4,113.6c-1.4,0.6-2,2.1-1.5,3.5l5.7,14.2c0.6,1.4,2.1,2,3.5,1.5l19.8-8c1.4-0.6,2-2.1,1.5-3.5l-5.7-14.2
		c-0.6-1.4-2.1-2-3.5-1.5L294.4,113.6z"/>
	<path class="st6" d="M294.4,113.6c-1.4,0.6-2,2.1-1.5,3.5l5.7,14.2c0.6,1.4,2.1,2,3.5,1.5l19.8-8c1.4-0.6,2-2.1,1.5-3.5l-5.7-14.2
		c-0.6-1.4-2.1-2-3.5-1.5L294.4,113.6z"/>
	<path class="st5" d="M315.5,109c-3.1,1.2-4.5,4.7-3.3,7.8c1.2,3.1,4.7,4.5,7.8,3.3l37-15c3.1-1.2,4.5-4.7,3.3-7.8
		c-1.2-3.1-4.7-4.5-7.8-3.3L315.5,109z"/>
	<path class="st6" d="M315.5,109c-3.1,1.2-4.5,4.7-3.3,7.8c1.2,3.1,4.7,4.5,7.8,3.3l37-15c3.1-1.2,4.5-4.7,3.3-7.8
		c-1.2-3.1-4.7-4.5-7.8-3.3L315.5,109z"/>
	<path class="st8" d="M317,111.7c-1.6,0.6-2.4,2.5-1.7,4c0.6,1.6,2.5,2.4,4,1.7l36.6-14.8c1.6-0.6,2.4-2.5,1.7-4
		c-0.6-1.6-2.5-2.4-4-1.7L317,111.7z"/>
	<path class="st5" d="M227.7,130.1c-2.7,1.1-4,4.2-2.9,6.9l11.1,27.4c1.1,2.7,4.2,4,6.9,2.9l38.3-15.5c2.7-1.1,4-4.2,2.9-6.9
		l-11.1-27.4c-1.1-2.7-4.2-4-6.9-2.9L227.7,130.1z"/>
	<path class="st6" d="M227.7,130.1c-2.7,1.1-4,4.2-2.9,6.9l11.1,27.4c1.1,2.7,4.2,4,6.9,2.9l38.3-15.5c2.7-1.1,4-4.2,2.9-6.9
		l-11.1-27.4c-1.1-2.7-4.2-4-6.9-2.9L227.7,130.1z"/>
	<path class="st7" d="M240.6,135.4c-1.4,0.6-2,2.1-1.5,3.5l5.7,14.2c0.6,1.4,2.1,2,3.5,1.5l19.8-8c1.4-0.6,2-2.1,1.5-3.5l-5.7-14.2
		c-0.6-1.4-2.1-2-3.5-1.5L240.6,135.4z"/>
	<path class="st6" d="M240.6,135.4c-1.4,0.6-2,2.1-1.5,3.5l5.7,14.2c0.6,1.4,2.1,2,3.5,1.5l19.8-8c1.4-0.6,2-2.1,1.5-3.5l-5.7-14.2
		c-0.6-1.4-2.1-2-3.5-1.5L240.6,135.4z"/>
	<path class="st5" d="M260.9,131.1c-3.1,1.2-4.5,4.7-3.3,7.8c1.2,3.1,4.7,4.5,7.8,3.3l37-15c3.1-1.2,4.5-4.7,3.3-7.8
		c-1.2-3.1-4.7-4.5-7.8-3.3L260.9,131.1z"/>
	<path class="st6" d="M260.9,131.1c-3.1,1.2-4.5,4.7-3.3,7.8c1.2,3.1,4.7,4.5,7.8,3.3l37-15c3.1-1.2,4.5-4.7,3.3-7.8
		c-1.2-3.1-4.7-4.5-7.8-3.3L260.9,131.1z"/>
	<path class="st8" d="M262.4,133.8c-1.6,0.6-2.4,2.5-1.7,4c0.6,1.6,2.5,2.4,4,1.7l36.6-14.8c1.6-0.6,2.4-2.5,1.7-4
		c-0.6-1.6-2.5-2.4-4-1.7L262.4,133.8z"/>
	<path class="st5" d="M172.4,152.5c-2.7,1.1-4,4.2-2.9,6.9l11.1,27.4c1.1,2.7,4.2,4,6.9,2.9l38.3-15.5c2.7-1.1,4-4.2,2.9-6.9
		l-11.1-27.4c-1.1-2.7-4.2-4-6.9-2.9L172.4,152.5z"/>
	<path class="st6" d="M172.4,152.5c-2.7,1.1-4,4.2-2.9,6.9l11.1,27.4c1.1,2.7,4.2,4,6.9,2.9l38.3-15.5c2.7-1.1,4-4.2,2.9-6.9
		l-11.1-27.4c-1.1-2.7-4.2-4-6.9-2.9L172.4,152.5z"/>
	<path class="st7" d="M185.3,157.7c-1.4,0.6-2,2.1-1.5,3.5l5.7,14.2c0.6,1.4,2.1,2,3.5,1.5l19.8-8c1.4-0.6,2-2.1,1.5-3.5l-5.7-14.2
		c-0.6-1.4-2.1-2-3.5-1.5L185.3,157.7z"/>
	<path class="st6" d="M185.3,157.7c-1.4,0.6-2,2.1-1.5,3.5l5.7,14.2c0.6,1.4,2.1,2,3.5,1.5l19.8-8c1.4-0.6,2-2.1,1.5-3.5l-5.7-14.2
		c-0.6-1.4-2.1-2-3.5-1.5L185.3,157.7z"/>
	<path class="st5" d="M206,153.2c-3.1,1.2-4.5,4.7-3.3,7.8c1.2,3.1,4.7,4.5,7.8,3.3l37-15c3.1-1.2,4.5-4.7,3.3-7.8
		c-1.2-3.1-4.7-4.5-7.8-3.3L206,153.2z"/>
	<path class="st6" d="M206,153.2c-3.1,1.2-4.5,4.7-3.3,7.8c1.2,3.1,4.7,4.5,7.8,3.3l37-15c3.1-1.2,4.5-4.7,3.3-7.8
		c-1.2-3.1-4.7-4.5-7.8-3.3L206,153.2z"/>
	<path class="st8" d="M207.5,156c-1.6,0.6-2.4,2.5-1.7,4c0.6,1.6,2.5,2.4,4,1.7l36.6-14.8c1.6-0.6,2.4-2.5,1.7-4
		c-0.6-1.6-2.4-2.4-4-1.7L207.5,156z"/>
	<path class="st5" d="M117.1,174.8c-2.7,1.1-4,4.2-2.9,6.9l11.1,27.4c1.1,2.7,4.2,4,6.9,2.9l38.3-15.5c2.7-1.1,4-4.2,2.9-6.9
		l-11.1-27.4c-1.1-2.7-4.2-4-6.9-2.9L117.1,174.8z"/>
	<path class="st6" d="M117.1,174.8c-2.7,1.1-4,4.2-2.9,6.9l11.1,27.4c1.1,2.7,4.2,4,6.9,2.9l38.3-15.5c2.7-1.1,4-4.2,2.9-6.9
		l-11.1-27.4c-1.1-2.7-4.2-4-6.9-2.9L117.1,174.8z"/>
	<path class="st7" d="M130,180c-1.4,0.6-2,2.1-1.5,3.5l5.7,14.2c0.6,1.4,2.1,2,3.5,1.5l19.8-8c1.4-0.6,2-2.1,1.5-3.5l-5.7-14.2
		c-0.6-1.4-2.1-2-3.5-1.5L130,180z"/>
	<path class="st6" d="M130,180c-1.4,0.6-2,2.1-1.5,3.5l5.7,14.2c0.6,1.4,2.1,2,3.5,1.5l19.8-8c1.4-0.6,2-2.1,1.5-3.5l-5.7-14.2
		c-0.6-1.4-2.1-2-3.5-1.5L130,180z"/>
	<path class="st5" d="M150.7,174.5c-3.1,1.2-4.5,4.7-3.3,7.8c1.2,3.1,4.7,4.5,7.8,3.3l37-15c3.1-1.2,4.5-4.7,3.3-7.8
		c-1.2-3.1-4.7-4.5-7.8-3.3L150.7,174.5z"/>
	<path class="st6" d="M150.7,174.5c-3.1,1.2-4.5,4.7-3.3,7.8c1.2,3.1,4.7,4.5,7.8,3.3l37-15c3.1-1.2,4.5-4.7,3.3-7.8
		c-1.2-3.1-4.7-4.5-7.8-3.3L150.7,174.5z"/>
	<path class="st8" d="M152.2,177.2c-1.6,0.6-2.4,2.5-1.7,4c0.6,1.6,2.5,2.4,4,1.7l36.6-14.8c1.6-0.6,2.4-2.5,1.7-4
		c-0.6-1.6-2.4-2.4-4-1.7L152.2,177.2z"/>
	<path class="st5" d="M60.9,196.4c-2.7,1.1-4,4.2-2.9,6.9L69,230.6c1.1,2.7,4.2,4,6.9,2.9l38.3-15.5c2.7-1.1,4-4.2,2.9-6.9
		l-11.1-27.4c-1.1-2.7-4.2-4-6.9-2.9L60.9,196.4z"/>
	<path class="st6" d="M60.9,196.4c-2.7,1.1-4,4.2-2.9,6.9L69,230.6c1.1,2.7,4.2,4,6.9,2.9l38.3-15.5c2.7-1.1,4-4.2,2.9-6.9
		l-11.1-27.4c-1.1-2.7-4.2-4-6.9-2.9L60.9,196.4z"/>
	<path class="st7" d="M73.8,201.6c-1.4,0.6-2,2.1-1.5,3.5l5.7,14.2c0.6,1.4,2.1,2,3.5,1.5l19.8-8c1.4-0.6,2-2.1,1.5-3.5l-5.7-14.2
		c-0.6-1.4-2.1-2-3.5-1.5L73.8,201.6z"/>
	<path class="st6" d="M73.8,201.6c-1.4,0.6-2,2.1-1.5,3.5l5.7,14.2c0.6,1.4,2.1,2,3.5,1.5l19.8-8c1.4-0.6,2-2.1,1.5-3.5l-5.7-14.2
		c-0.6-1.4-2.1-2-3.5-1.5L73.8,201.6z"/>
	<path class="st5" d="M94.8,197c-3.1,1.2-4.5,4.7-3.3,7.8s4.7,4.5,7.8,3.3l37-15c3.1-1.2,4.5-4.7,3.3-7.8c-1.2-3.1-4.7-4.5-7.8-3.3
		L94.8,197z"/>
	<path class="st6" d="M94.8,197c-3.1,1.2-4.5,4.7-3.3,7.8s4.7,4.5,7.8,3.3l37-15c3.1-1.2,4.5-4.7,3.3-7.8c-1.2-3.1-4.7-4.5-7.8-3.3
		L94.8,197z"/>
	<path class="st8" d="M96.3,199.7c-1.6,0.6-2.4,2.5-1.7,4c0.6,1.6,2.5,2.4,4,1.7l36.6-14.8c1.6-0.6,2.4-2.5,1.7-4
		c-0.6-1.6-2.4-2.4-4-1.7L96.3,199.7z"/>
	<path class="st5" d="M7,218.2c-2.7,1.1-4,4.2-2.9,6.9l11.1,27.4c1.1,2.7,4.2,4,6.9,2.9l38.3-15.5c2.7-1.1,4-4.2,2.9-6.9l-11.1-27.4
		c-1.1-2.7-4.2-4-6.9-2.9L7,218.2z"/>
	<path class="st6" d="M7,218.2c-2.7,1.1-4,4.2-2.9,6.9l11.1,27.4c1.1,2.7,4.2,4,6.9,2.9l38.3-15.5c2.7-1.1,4-4.2,2.9-6.9l-11.1-27.4
		c-1.1-2.7-4.2-4-6.9-2.9L7,218.2z"/>
	<path class="st7" d="M19.9,223.4c-1.4,0.6-2,2.1-1.5,3.5l5.7,14.2c0.6,1.4,2.1,2,3.5,1.5l19.8-8c1.4-0.6,2-2.1,1.5-3.5l-5.7-14.2
		c-0.6-1.4-2.1-2-3.5-1.5L19.9,223.4z"/>
	<path class="st6" d="M19.9,223.4c-1.4,0.6-2,2.1-1.5,3.5l5.7,14.2c0.6,1.4,2.1,2,3.5,1.5l19.8-8c1.4-0.6,2-2.1,1.5-3.5l-5.7-14.2
		c-0.6-1.4-2.1-2-3.5-1.5L19.9,223.4z"/>
	<path class="st5" d="M40.2,219.1c-3.1,1.2-4.5,4.7-3.3,7.8c1.2,3.1,4.7,4.5,7.8,3.3l37-15c3.1-1.2,4.5-4.7,3.3-7.8
		c-1.2-3.1-4.7-4.5-7.8-3.3L40.2,219.1z"/>
	<path class="st6" d="M40.2,219.1c-3.1,1.2-4.5,4.7-3.3,7.8c1.2,3.1,4.7,4.5,7.8,3.3l37-15c3.1-1.2,4.5-4.7,3.3-7.8
		c-1.2-3.1-4.7-4.5-7.8-3.3L40.2,219.1z"/>
	<path class="st8" d="M41.7,221.8c-1.6,0.6-2.4,2.4-1.7,4c0.6,1.6,2.5,2.4,4,1.7l36.6-14.8c1.6-0.6,2.4-2.5,1.7-4
		c-0.6-1.6-2.4-2.4-4-1.7L41.7,221.8z"/>
	<path class="st5" d="M-46.8,239.9c-2.7,1.1-4,4.2-2.9,6.9l11.1,27.4c1.1,2.7,4.2,4,6.9,2.9l38.3-15.5c2.7-1.1,4-4.2,2.9-6.9
		l-11.1-27.4c-1.1-2.7-4.2-4-6.9-2.9L-46.8,239.9z"/>
	<path class="st6" d="M-46.8,239.9c-2.7,1.1-4,4.2-2.9,6.9l11.1,27.4c1.1,2.7,4.2,4,6.9,2.9l38.3-15.5c2.7-1.1,4-4.2,2.9-6.9
		l-11.1-27.4c-1.1-2.7-4.2-4-6.9-2.9L-46.8,239.9z"/>
	<path class="st7" d="M-33.9,245.1c-1.4,0.6-2,2.1-1.5,3.5l5.7,14.2c0.6,1.4,2.1,2,3.5,1.5l19.8-8c1.4-0.6,2-2.1,1.5-3.5l-5.7-14.2
		c-0.6-1.4-2.1-2-3.5-1.5L-33.9,245.1z"/>
	<path class="st6" d="M-33.9,245.1c-1.4,0.6-2,2.1-1.5,3.5l5.7,14.2c0.6,1.4,2.1,2,3.5,1.5l19.8-8c1.4-0.6,2-2.1,1.5-3.5l-5.7-14.2
		c-0.6-1.4-2.1-2-3.5-1.5L-33.9,245.1z"/>
	<path class="st5" d="M-12.9,240.5c-3.1,1.2-4.5,4.7-3.3,7.8c1.2,3.1,4.7,4.5,7.8,3.3l37-15c3.1-1.2,4.5-4.7,3.3-7.8
		s-4.7-4.5-7.8-3.3L-12.9,240.5z"/>
	<path class="st6" d="M-12.9,240.5c-3.1,1.2-4.5,4.7-3.3,7.8c1.2,3.1,4.7,4.5,7.8,3.3l37-15c3.1-1.2,4.5-4.7,3.3-7.8
		s-4.7-4.5-7.8-3.3L-12.9,240.5z"/>
	<path class="st8" d="M-11.3,243.2c-1.6,0.6-2.4,2.5-1.7,4c0.6,1.6,2.5,2.4,4,1.7l36.6-14.8c1.6-0.6,2.4-2.5,1.7-4
		c-0.6-1.6-2.5-2.4-4-1.7L-11.3,243.2z"/>
</g>
<polygon class="st9" points="509,31.5 523.3,6.5 600.5,0.7 540.7,49.5 513.2,40.8 "/>
<polygon class="st10" points="509,31.5 523.3,6.5 600.5,0.7 540.7,49.5 513.2,40.8 "/>
<g>
	<defs>
		<rect id="SVGID_7_" x="503.1" y="-28" width="100.2" height="104.7"/>
	</defs>
	<clipPath id="SVGID_8_">
		<use xlink:href="#SVGID_7_"  style="overflow:visible;"/>
	</clipPath>
	<path class="st11" d="M447.3,41.1c-2.7,1.1-4,4.2-2.9,6.9l11.1,27.4c1.1,2.7,4.2,4,6.9,2.9l38.3-15.5c2.7-1.1,4-4.2,2.9-6.9
		l-11.1-27.4c-1.1-2.7-4.2-4-6.9-2.9L447.3,41.1z"/>
	<path class="st12" d="M447.3,41.1c-2.7,1.1-4,4.2-2.9,6.9l11.1,27.4c1.1,2.7,4.2,4,6.9,2.9l38.3-15.5c2.7-1.1,4-4.2,2.9-6.9
		l-11.1-27.4c-1.1-2.7-4.2-4-6.9-2.9L447.3,41.1z"/>
	<path class="st13" d="M460.2,46.4c-1.4,0.6-2,2.1-1.5,3.5l5.7,14.2c0.6,1.4,2.1,2,3.5,1.5l19.8-8c1.4-0.6,2-2.1,1.5-3.5l-5.7-14.2
		c-0.6-1.4-2.1-2-3.5-1.5L460.2,46.4z"/>
	<path class="st12" d="M460.2,46.4c-1.4,0.6-2,2.1-1.5,3.5l5.7,14.2c0.6,1.4,2.1,2,3.5,1.5l19.8-8c1.4-0.6,2-2.1,1.5-3.5l-5.7-14.2
		c-0.6-1.4-2.1-2-3.5-1.5L460.2,46.4z"/>
	<path class="st14" d="M527.4,14l16.2,9.3c0,0-4.4,19.8-4.6,19.3c-0.2-0.5,46.5-36.3,46.5-36.3L527.4,14z"/>
	<path class="st11" d="M392.1,63.7c-2.7,1.1-4,4.2-2.9,6.9l11.1,27.4c1.1,2.7,4.2,4,6.9,2.9l38.3-15.5c2.7-1.1,4-4.2,2.9-6.9
		l-11.1-27.4c-1.1-2.7-4.2-4-6.9-2.9L392.1,63.7z"/>
	<path class="st12" d="M392.1,63.7c-2.7,1.1-4,4.2-2.9,6.9l11.1,27.4c1.1,2.7,4.2,4,6.9,2.9l38.3-15.5c2.7-1.1,4-4.2,2.9-6.9
		l-11.1-27.4c-1.1-2.7-4.2-4-6.9-2.9L392.1,63.7z"/>
	<path class="st13" d="M405,68.9c-1.4,0.6-2,2.1-1.5,3.5l5.7,14.2c0.6,1.4,2.1,2,3.5,1.5l19.8-8c1.4-0.6,2-2.1,1.5-3.5l-5.7-14.2
		c-0.6-1.4-2.1-2-3.5-1.5L405,68.9z"/>
	<path class="st12" d="M405,68.9c-1.4,0.6-2,2.1-1.5,3.5l5.7,14.2c0.6,1.4,2.1,2,3.5,1.5l19.8-8c1.4-0.6,2-2.1,1.5-3.5l-5.7-14.2
		c-0.6-1.4-2.1-2-3.5-1.5L405,68.9z"/>
</g>
<polygon class="st15" points="518.3,27.6 521.3,19.6 539.7,24.8 531.8,41.2 522.6,37.9 "/>
<polygon class="st10" points="518.3,27.6 521.3,19.6 539.7,24.8 531.8,41.2 522.6,37.9 "/>
<g>
	<defs>
		<rect id="SVGID_9_" x="503.1" y="-28" width="100.2" height="104.7"/>
	</defs>
	<clipPath id="SVGID_10_">
		<use xlink:href="#SVGID_9_"  style="overflow:visible;"/>
	</clipPath>
	<path class="st16" d="M480.5,42.3c-3.1,1.2-4.5,4.7-3.3,7.8c1.2,3.1,4.7,4.5,7.8,3.3l37-15c3.1-1.2,4.5-4.7,3.3-7.8
		c-1.2-3.1-4.7-4.5-7.8-3.3L480.5,42.3z"/>
	<path class="st17" d="M480.5,42.3c-3.1,1.2-4.5,4.7-3.3,7.8c1.2,3.1,4.7,4.5,7.8,3.3l37-15c3.1-1.2,4.5-4.7,3.3-7.8
		c-1.2-3.1-4.7-4.5-7.8-3.3L480.5,42.3z"/>
	<path class="st16" d="M425.3,64.6c-3.1,1.2-4.5,4.7-3.3,7.8c1.2,3.1,4.7,4.5,7.8,3.3l37-15c3.1-1.2,4.5-4.7,3.3-7.8
		c-1.2-3.1-4.7-4.5-7.8-3.3L425.3,64.6z"/>
	<path class="st17" d="M425.3,64.6c-3.1,1.2-4.5,4.7-3.3,7.8c1.2,3.1,4.7,4.5,7.8,3.3l37-15c3.1-1.2,4.5-4.7,3.3-7.8
		c-1.2-3.1-4.7-4.5-7.8-3.3L425.3,64.6z"/>
	<path class="st18" d="M481.9,45.1c-1.6,0.6-2.4,2.5-1.7,4c0.6,1.6,2.5,2.4,4,1.7l36.6-14.8c1.6-0.6,2.4-2.5,1.7-4
		c-0.6-1.6-2.5-2.4-4-1.7L481.9,45.1z"/>
	<path class="st18" d="M426.8,67.3c-1.6,0.6-2.4,2.5-1.7,4c0.6,1.6,2.5,2.4,4,1.7l36.6-14.8c1.6-0.6,2.4-2.5,1.7-4
		c-0.6-1.6-2.5-2.4-4-1.7L426.8,67.3z"/>
	<path class="st16" d="M336.8,86c-2.7,1.1-4,4.2-2.9,6.9l11.1,27.4c1.1,2.7,4.2,4,6.9,2.9l38.3-15.5c2.7-1.1,4-4.2,2.9-6.9L382,73.5
		c-1.1-2.7-4.2-4-6.9-2.9L336.8,86z"/>
	<path class="st17" d="M336.8,86c-2.7,1.1-4,4.2-2.9,6.9l11.1,27.4c1.1,2.7,4.2,4,6.9,2.9l38.3-15.5c2.7-1.1,4-4.2,2.9-6.9L382,73.5
		c-1.1-2.7-4.2-4-6.9-2.9L336.8,86z"/>
	<path class="st19" d="M349.7,91.3c-1.4,0.6-2,2.1-1.5,3.5L354,109c0.6,1.4,2.1,2,3.5,1.5l19.8-8c1.4-0.6,2-2.1,1.5-3.5L373,84.8
		c-0.6-1.4-2.1-2-3.5-1.5L349.7,91.3z"/>
	<path class="st17" d="M349.7,91.3c-1.4,0.6-2,2.1-1.5,3.5L354,109c0.6,1.4,2.1,2,3.5,1.5l19.8-8c1.4-0.6,2-2.1,1.5-3.5L373,84.8
		c-0.6-1.4-2.1-2-3.5-1.5L349.7,91.3z"/>
	<path class="st16" d="M370.4,86.8c-3.1,1.2-4.5,4.7-3.3,7.8c1.2,3.1,4.7,4.5,7.8,3.3l37-15c3.1-1.2,4.5-4.7,3.3-7.8
		c-1.2-3.1-4.7-4.5-7.8-3.3L370.4,86.8z"/>
	<path class="st17" d="M370.4,86.8c-3.1,1.2-4.5,4.7-3.3,7.8c1.2,3.1,4.7,4.5,7.8,3.3l37-15c3.1-1.2,4.5-4.7,3.3-7.8
		c-1.2-3.1-4.7-4.5-7.8-3.3L370.4,86.8z"/>
	<path class="st18" d="M371.9,89.5c-1.6,0.6-2.4,2.5-1.7,4c0.6,1.6,2.5,2.4,4,1.7l36.6-14.8c1.6-0.6,2.4-2.5,1.7-4
		c-0.6-1.6-2.5-2.4-4-1.7L371.9,89.5z"/>
	<path class="st16" d="M281.6,108.4c-2.7,1.1-4,4.2-2.9,6.9l11.1,27.4c1.1,2.7,4.2,4,6.9,2.9l38.3-15.5c2.7-1.1,4-4.2,2.9-6.9
		l-11.1-27.4c-1.1-2.7-4.2-4-6.9-2.9L281.6,108.4z"/>
	<path class="st17" d="M281.6,108.4c-2.7,1.1-4,4.2-2.9,6.9l11.1,27.4c1.1,2.7,4.2,4,6.9,2.9l38.3-15.5c2.7-1.1,4-4.2,2.9-6.9
		l-11.1-27.4c-1.1-2.7-4.2-4-6.9-2.9L281.6,108.4z"/>
	<path class="st19" d="M294.4,113.6c-1.4,0.6-2,2.1-1.5,3.5l5.7,14.2c0.6,1.4,2.1,2,3.5,1.5l19.8-8c1.4-0.6,2-2.1,1.5-3.5l-5.7-14.2
		c-0.6-1.4-2.1-2-3.5-1.5L294.4,113.6z"/>
	<path class="st17" d="M294.4,113.6c-1.4,0.6-2,2.1-1.5,3.5l5.7,14.2c0.6,1.4,2.1,2,3.5,1.5l19.8-8c1.4-0.6,2-2.1,1.5-3.5l-5.7-14.2
		c-0.6-1.4-2.1-2-3.5-1.5L294.4,113.6z"/>
	<path class="st16" d="M315.5,109c-3.1,1.2-4.5,4.7-3.3,7.8c1.2,3.1,4.7,4.5,7.8,3.3l37-15c3.1-1.2,4.5-4.7,3.3-7.8
		c-1.2-3.1-4.7-4.5-7.8-3.3L315.5,109z"/>
	<path class="st17" d="M315.5,109c-3.1,1.2-4.5,4.7-3.3,7.8c1.2,3.1,4.7,4.5,7.8,3.3l37-15c3.1-1.2,4.5-4.7,3.3-7.8
		c-1.2-3.1-4.7-4.5-7.8-3.3L315.5,109z"/>
	<path class="st18" d="M317,111.7c-1.6,0.6-2.4,2.5-1.7,4c0.6,1.6,2.5,2.4,4,1.7l36.6-14.8c1.6-0.6,2.4-2.5,1.7-4
		c-0.6-1.6-2.5-2.4-4-1.7L317,111.7z"/>
	<path class="st16" d="M227.7,130.1c-2.7,1.1-4,4.2-2.9,6.9l11.1,27.4c1.1,2.7,4.2,4,6.9,2.9l38.3-15.5c2.7-1.1,4-4.2,2.9-6.9
		l-11.1-27.4c-1.1-2.7-4.2-4-6.9-2.9L227.7,130.1z"/>
	<path class="st17" d="M227.7,130.1c-2.7,1.1-4,4.2-2.9,6.9l11.1,27.4c1.1,2.7,4.2,4,6.9,2.9l38.3-15.5c2.7-1.1,4-4.2,2.9-6.9
		l-11.1-27.4c-1.1-2.7-4.2-4-6.9-2.9L227.7,130.1z"/>
	<path class="st19" d="M240.6,135.4c-1.4,0.6-2,2.1-1.5,3.5l5.7,14.2c0.6,1.4,2.1,2,3.5,1.5l19.8-8c1.4-0.6,2-2.1,1.5-3.5l-5.7-14.2
		c-0.6-1.4-2.1-2-3.5-1.5L240.6,135.4z"/>
	<path class="st17" d="M240.6,135.4c-1.4,0.6-2,2.1-1.5,3.5l5.7,14.2c0.6,1.4,2.1,2,3.5,1.5l19.8-8c1.4-0.6,2-2.1,1.5-3.5l-5.7-14.2
		c-0.6-1.4-2.1-2-3.5-1.5L240.6,135.4z"/>
	<path class="st16" d="M260.9,131.1c-3.1,1.2-4.5,4.7-3.3,7.8c1.2,3.1,4.7,4.5,7.8,3.3l37-15c3.1-1.2,4.5-4.7,3.3-7.8
		c-1.2-3.1-4.7-4.5-7.8-3.3L260.9,131.1z"/>
	<path class="st17" d="M260.9,131.1c-3.1,1.2-4.5,4.7-3.3,7.8c1.2,3.1,4.7,4.5,7.8,3.3l37-15c3.1-1.2,4.5-4.7,3.3-7.8
		c-1.2-3.1-4.7-4.5-7.8-3.3L260.9,131.1z"/>
	<path class="st18" d="M262.4,133.8c-1.6,0.6-2.4,2.5-1.7,4c0.6,1.6,2.5,2.4,4,1.7l36.6-14.8c1.6-0.6,2.4-2.5,1.7-4
		c-0.6-1.6-2.5-2.4-4-1.7L262.4,133.8z"/>
	<path class="st16" d="M172.4,152.5c-2.7,1.1-4,4.2-2.9,6.9l11.1,27.4c1.1,2.7,4.2,4,6.9,2.9l38.3-15.5c2.7-1.1,4-4.2,2.9-6.9
		l-11.1-27.4c-1.1-2.7-4.2-4-6.9-2.9L172.4,152.5z"/>
	<path class="st17" d="M172.4,152.5c-2.7,1.1-4,4.2-2.9,6.9l11.1,27.4c1.1,2.7,4.2,4,6.9,2.9l38.3-15.5c2.7-1.1,4-4.2,2.9-6.9
		l-11.1-27.4c-1.1-2.7-4.2-4-6.9-2.9L172.4,152.5z"/>
	<path class="st19" d="M185.3,157.7c-1.4,0.6-2,2.1-1.5,3.5l5.7,14.2c0.6,1.4,2.1,2,3.5,1.5l19.8-8c1.4-0.6,2-2.1,1.5-3.5l-5.7-14.2
		c-0.6-1.4-2.1-2-3.5-1.5L185.3,157.7z"/>
	<path class="st17" d="M185.3,157.7c-1.4,0.6-2,2.1-1.5,3.5l5.7,14.2c0.6,1.4,2.1,2,3.5,1.5l19.8-8c1.4-0.6,2-2.1,1.5-3.5l-5.7-14.2
		c-0.6-1.4-2.1-2-3.5-1.5L185.3,157.7z"/>
	<path class="st16" d="M206,153.2c-3.1,1.2-4.5,4.7-3.3,7.8c1.2,3.1,4.7,4.5,7.8,3.3l37-15c3.1-1.2,4.5-4.7,3.3-7.8
		c-1.2-3.1-4.7-4.5-7.8-3.3L206,153.2z"/>
	<path class="st17" d="M206,153.2c-3.1,1.2-4.5,4.7-3.3,7.8c1.2,3.1,4.7,4.5,7.8,3.3l37-15c3.1-1.2,4.5-4.7,3.3-7.8
		c-1.2-3.1-4.7-4.5-7.8-3.3L206,153.2z"/>
	<path class="st18" d="M207.5,156c-1.6,0.6-2.4,2.5-1.7,4c0.6,1.6,2.5,2.4,4,1.7l36.6-14.8c1.6-0.6,2.4-2.5,1.7-4
		c-0.6-1.6-2.4-2.4-4-1.7L207.5,156z"/>
	<path class="st16" d="M117.1,174.8c-2.7,1.1-4,4.2-2.9,6.9l11.1,27.4c1.1,2.7,4.2,4,6.9,2.9l38.3-15.5c2.7-1.1,4-4.2,2.9-6.9
		l-11.1-27.4c-1.1-2.7-4.2-4-6.9-2.9L117.1,174.8z"/>
	<path class="st17" d="M117.1,174.8c-2.7,1.1-4,4.2-2.9,6.9l11.1,27.4c1.1,2.7,4.2,4,6.9,2.9l38.3-15.5c2.7-1.1,4-4.2,2.9-6.9
		l-11.1-27.4c-1.1-2.7-4.2-4-6.9-2.9L117.1,174.8z"/>
	<path class="st19" d="M130,180c-1.4,0.6-2,2.1-1.5,3.5l5.7,14.2c0.6,1.4,2.1,2,3.5,1.5l19.8-8c1.4-0.6,2-2.1,1.5-3.5l-5.7-14.2
		c-0.6-1.4-2.1-2-3.5-1.5L130,180z"/>
	<path class="st17" d="M130,180c-1.4,0.6-2,2.1-1.5,3.5l5.7,14.2c0.6,1.4,2.1,2,3.5,1.5l19.8-8c1.4-0.6,2-2.1,1.5-3.5l-5.7-14.2
		c-0.6-1.4-2.1-2-3.5-1.5L130,180z"/>
	<path class="st16" d="M150.7,174.5c-3.1,1.2-4.5,4.7-3.3,7.8c1.2,3.1,4.7,4.5,7.8,3.3l37-15c3.1-1.2,4.5-4.7,3.3-7.8
		c-1.2-3.1-4.7-4.5-7.8-3.3L150.7,174.5z"/>
	<path class="st17" d="M150.7,174.5c-3.1,1.2-4.5,4.7-3.3,7.8c1.2,3.1,4.7,4.5,7.8,3.3l37-15c3.1-1.2,4.5-4.7,3.3-7.8
		c-1.2-3.1-4.7-4.5-7.8-3.3L150.7,174.5z"/>
	<path class="st18" d="M152.2,177.2c-1.6,0.6-2.4,2.5-1.7,4c0.6,1.6,2.5,2.4,4,1.7l36.6-14.8c1.6-0.6,2.4-2.5,1.7-4
		c-0.6-1.6-2.4-2.4-4-1.7L152.2,177.2z"/>
	<path class="st16" d="M60.9,196.4c-2.7,1.1-4,4.2-2.9,6.9L69,230.6c1.1,2.7,4.2,4,6.9,2.9l38.3-15.5c2.7-1.1,4-4.2,2.9-6.9
		l-11.1-27.4c-1.1-2.7-4.2-4-6.9-2.9L60.9,196.4z"/>
	<path class="st17" d="M60.9,196.4c-2.7,1.1-4,4.2-2.9,6.9L69,230.6c1.1,2.7,4.2,4,6.9,2.9l38.3-15.5c2.7-1.1,4-4.2,2.9-6.9
		l-11.1-27.4c-1.1-2.7-4.2-4-6.9-2.9L60.9,196.4z"/>
	<path class="st19" d="M73.8,201.6c-1.4,0.6-2,2.1-1.5,3.5l5.7,14.2c0.6,1.4,2.1,2,3.5,1.5l19.8-8c1.4-0.6,2-2.1,1.5-3.5l-5.7-14.2
		c-0.6-1.4-2.1-2-3.5-1.5L73.8,201.6z"/>
	<path class="st17" d="M73.8,201.6c-1.4,0.6-2,2.1-1.5,3.5l5.7,14.2c0.6,1.4,2.1,2,3.5,1.5l19.8-8c1.4-0.6,2-2.1,1.5-3.5l-5.7-14.2
		c-0.6-1.4-2.1-2-3.5-1.5L73.8,201.6z"/>
	<path class="st16" d="M94.8,197c-3.1,1.2-4.5,4.7-3.3,7.8s4.7,4.5,7.8,3.3l37-15c3.1-1.2,4.5-4.7,3.3-7.8c-1.2-3.1-4.7-4.5-7.8-3.3
		L94.8,197z"/>
	<path class="st17" d="M94.8,197c-3.1,1.2-4.5,4.7-3.3,7.8s4.7,4.5,7.8,3.3l37-15c3.1-1.2,4.5-4.7,3.3-7.8c-1.2-3.1-4.7-4.5-7.8-3.3
		L94.8,197z"/>
	<path class="st18" d="M96.3,199.7c-1.6,0.6-2.4,2.5-1.7,4c0.6,1.6,2.5,2.4,4,1.7l36.6-14.8c1.6-0.6,2.4-2.5,1.7-4
		c-0.6-1.6-2.4-2.4-4-1.7L96.3,199.7z"/>
	<path class="st16" d="M7,218.2c-2.7,1.1-4,4.2-2.9,6.9l11.1,27.4c1.1,2.7,4.2,4,6.9,2.9l38.3-15.5c2.7-1.1,4-4.2,2.9-6.9
		l-11.1-27.4c-1.1-2.7-4.2-4-6.9-2.9L7,218.2z"/>
	<path class="st17" d="M7,218.2c-2.7,1.1-4,4.2-2.9,6.9l11.1,27.4c1.1,2.7,4.2,4,6.9,2.9l38.3-15.5c2.7-1.1,4-4.2,2.9-6.9
		l-11.1-27.4c-1.1-2.7-4.2-4-6.9-2.9L7,218.2z"/>
	<path class="st19" d="M19.9,223.4c-1.4,0.6-2,2.1-1.5,3.5l5.7,14.2c0.6,1.4,2.1,2,3.5,1.5l19.8-8c1.4-0.6,2-2.1,1.5-3.5l-5.7-14.2
		c-0.6-1.4-2.1-2-3.5-1.5L19.9,223.4z"/>
	<path class="st17" d="M19.9,223.4c-1.4,0.6-2,2.1-1.5,3.5l5.7,14.2c0.6,1.4,2.1,2,3.5,1.5l19.8-8c1.4-0.6,2-2.1,1.5-3.5l-5.7-14.2
		c-0.6-1.4-2.1-2-3.5-1.5L19.9,223.4z"/>
	<path class="st16" d="M40.2,219.1c-3.1,1.2-4.5,4.7-3.3,7.8c1.2,3.1,4.7,4.5,7.8,3.3l37-15c3.1-1.2,4.5-4.7,3.3-7.8
		c-1.2-3.1-4.7-4.5-7.8-3.3L40.2,219.1z"/>
	<path class="st17" d="M40.2,219.1c-3.1,1.2-4.5,4.7-3.3,7.8c1.2,3.1,4.7,4.5,7.8,3.3l37-15c3.1-1.2,4.5-4.7,3.3-7.8
		c-1.2-3.1-4.7-4.5-7.8-3.3L40.2,219.1z"/>
	<path class="st18" d="M41.7,221.8c-1.6,0.6-2.4,2.4-1.7,4c0.6,1.6,2.5,2.4,4,1.7l36.6-14.8c1.6-0.6,2.4-2.5,1.7-4
		c-0.6-1.6-2.4-2.4-4-1.7L41.7,221.8z"/>
	<path class="st16" d="M-46.8,239.9c-2.7,1.1-4,4.2-2.9,6.9l11.1,27.4c1.1,2.7,4.2,4,6.9,2.9l38.3-15.5c2.7-1.1,4-4.2,2.9-6.9
		l-11.1-27.4c-1.1-2.7-4.2-4-6.9-2.9L-46.8,239.9z"/>
	<path class="st17" d="M-46.8,239.9c-2.7,1.1-4,4.2-2.9,6.9l11.1,27.4c1.1,2.7,4.2,4,6.9,2.9l38.3-15.5c2.7-1.1,4-4.2,2.9-6.9
		l-11.1-27.4c-1.1-2.7-4.2-4-6.9-2.9L-46.8,239.9z"/>
	<path class="st19" d="M-33.9,245.1c-1.4,0.6-2,2.1-1.5,3.5l5.7,14.2c0.6,1.4,2.1,2,3.5,1.5l19.8-8c1.4-0.6,2-2.1,1.5-3.5l-5.7-14.2
		c-0.6-1.4-2.1-2-3.5-1.5L-33.9,245.1z"/>
	<path class="st17" d="M-33.9,245.1c-1.4,0.6-2,2.1-1.5,3.5l5.7,14.2c0.6,1.4,2.1,2,3.5,1.5l19.8-8c1.4-0.6,2-2.1,1.5-3.5l-5.7-14.2
		c-0.6-1.4-2.1-2-3.5-1.5L-33.9,245.1z"/>
	<path class="st16" d="M-12.9,240.5c-3.1,1.2-4.5,4.7-3.3,7.8s4.7,4.5,7.8,3.3l37-15c3.1-1.2,4.5-4.7,3.3-7.8
		c-1.2-3.1-4.7-4.5-7.8-3.3L-12.9,240.5z"/>
	<path class="st17" d="M-12.9,240.5c-3.1,1.2-4.5,4.7-3.3,7.8s4.7,4.5,7.8,3.3l37-15c3.1-1.2,4.5-4.7,3.3-7.8
		c-1.2-3.1-4.7-4.5-7.8-3.3L-12.9,240.5z"/>
	<path class="st18" d="M-11.3,243.2c-1.6,0.6-2.4,2.4-1.7,4s2.5,2.4,4,1.7l36.6-14.8c1.6-0.6,2.4-2.5,1.7-4c-0.6-1.6-2.5-2.4-4-1.7
		L-11.3,243.2z"/>
</g>
<g>
	<defs>
		<rect id="SVGID_11_" x="-9.3" y="-28" width="612.7" height="379.9"/>
	</defs>
	<clipPath id="SVGID_12_">
		<use xlink:href="#SVGID_11_"  style="overflow:visible;"/>
	</clipPath>
	<path class="st20" d="M515.8,123.9h-51.3v57.8h-25.1V74.1l59-0.2V28.3h-75.4c-22.7,0-34.9,9-34.9,32.6v134.9
		c0,22.9,12.2,31.4,34.6,31.4h93.1V123.9z"/>
	<path class="st21" d="M515.8,123.9h-51.3v57.8h-25.1V74.1l59-0.2V28.3h-75.4c-22.7,0-34.9,9-34.9,32.6v134.9
		c0,22.9,12.2,31.4,34.6,31.4h93.1V123.9z"/>
	<path class="st20" d="M161,145.5c0-17.9-14.9-30.1-29.6-30.1l-3.2,0.2l32.6-87.4h-51l-27.6,81.9h-1.5V28.3H29.4v198.9h51.3v-71.7
		h29.1v71.7H161V145.5z"/>
	<path class="st21" d="M161,145.5c0-17.9-14.9-30.1-29.6-30.1l-3.2,0.2l32.6-87.4h-51l-27.6,81.9h-1.5V28.3H29.4v198.9h51.3v-71.7
		h29.1v71.7H161V145.5z"/>
</g>
<g>
	<defs>
		<rect id="SVGID_13_" x="-9.3" y="169.9" width="114.3" height="121.5"/>
	</defs>
	<clipPath id="SVGID_14_">
		<use xlink:href="#SVGID_13_"  style="overflow:visible;"/>
	</clipPath>
	<path class="st22" d="M447.3,41.1c-2.7,1.1-4,4.2-2.9,6.9l11.1,27.4c1.1,2.7,4.2,4,6.9,2.9l38.3-15.5c2.7-1.1,4-4.2,2.9-6.9
		l-11.1-27.4c-1.1-2.7-4.2-4-6.9-2.9L447.3,41.1z"/>
	<path class="st23" d="M447.3,41.1c-2.7,1.1-4,4.2-2.9,6.9l11.1,27.4c1.1,2.7,4.2,4,6.9,2.9l38.3-15.5c2.7-1.1,4-4.2,2.9-6.9
		l-11.1-27.4c-1.1-2.7-4.2-4-6.9-2.9L447.3,41.1z"/>
	<path class="st24" d="M460.2,46.4c-1.4,0.6-2,2.1-1.5,3.5l5.7,14.2c0.6,1.4,2.1,2,3.5,1.5l19.8-8c1.4-0.6,2-2.1,1.5-3.5l-5.7-14.2
		c-0.6-1.4-2.1-2-3.5-1.5L460.2,46.4z"/>
	<path class="st23" d="M460.2,46.4c-1.4,0.6-2,2.1-1.5,3.5l5.7,14.2c0.6,1.4,2.1,2,3.5,1.5l19.8-8c1.4-0.6,2-2.1,1.5-3.5l-5.7-14.2
		c-0.6-1.4-2.1-2-3.5-1.5L460.2,46.4z"/>
	<path class="st25" d="M527.4,14l16.2,9.3c0,0-4.4,19.8-4.6,19.3c-0.2-0.5,46.5-36.3,46.5-36.3L527.4,14z"/>
	<path class="st22" d="M392.1,63.7c-2.7,1.1-4,4.2-2.9,6.9l11.1,27.4c1.1,2.7,4.2,4,6.9,2.9l38.3-15.5c2.7-1.1,4-4.2,2.9-6.9
		l-11.1-27.4c-1.1-2.7-4.2-4-6.9-2.9L392.1,63.7z"/>
	<path class="st23" d="M392.1,63.7c-2.7,1.1-4,4.2-2.9,6.9l11.1,27.4c1.1,2.7,4.2,4,6.9,2.9l38.3-15.5c2.7-1.1,4-4.2,2.9-6.9
		l-11.1-27.4c-1.1-2.7-4.2-4-6.9-2.9L392.1,63.7z"/>
	<path class="st24" d="M405,68.9c-1.4,0.6-2,2.1-1.5,3.5l5.7,14.2c0.6,1.4,2.1,2,3.5,1.5l19.8-8c1.4-0.6,2-2.1,1.5-3.5l-5.7-14.2
		c-0.6-1.4-2.1-2-3.5-1.5L405,68.9z"/>
	<path class="st23" d="M405,68.9c-1.4,0.6-2,2.1-1.5,3.5l5.7,14.2c0.6,1.4,2.1,2,3.5,1.5l19.8-8c1.4-0.6,2-2.1,1.5-3.5l-5.7-14.2
		c-0.6-1.4-2.1-2-3.5-1.5L405,68.9z"/>
	<path class="st22" d="M480.5,42.3c-3.1,1.2-4.5,4.7-3.3,7.8c1.2,3.1,4.7,4.5,7.8,3.3l37-15c3.1-1.2,4.5-4.7,3.3-7.8
		c-1.2-3.1-4.7-4.5-7.8-3.3L480.5,42.3z"/>
	<path class="st23" d="M480.5,42.3c-3.1,1.2-4.5,4.7-3.3,7.8c1.2,3.1,4.7,4.5,7.8,3.3l37-15c3.1-1.2,4.5-4.7,3.3-7.8
		c-1.2-3.1-4.7-4.5-7.8-3.3L480.5,42.3z"/>
	<path class="st22" d="M425.3,64.6c-3.1,1.2-4.5,4.7-3.3,7.8c1.2,3.1,4.7,4.5,7.8,3.3l37-15c3.1-1.2,4.5-4.7,3.3-7.8
		c-1.2-3.1-4.7-4.5-7.8-3.3L425.3,64.6z"/>
	<path class="st23" d="M425.3,64.6c-3.1,1.2-4.5,4.7-3.3,7.8c1.2,3.1,4.7,4.5,7.8,3.3l37-15c3.1-1.2,4.5-4.7,3.3-7.8
		c-1.2-3.1-4.7-4.5-7.8-3.3L425.3,64.6z"/>
	<path class="st25" d="M481.9,45.1c-1.6,0.6-2.4,2.5-1.7,4c0.6,1.6,2.5,2.4,4,1.7l36.6-14.8c1.6-0.6,2.4-2.5,1.7-4
		c-0.6-1.6-2.5-2.4-4-1.7L481.9,45.1z"/>
	<path class="st25" d="M426.8,67.3c-1.6,0.6-2.4,2.5-1.7,4c0.6,1.6,2.5,2.4,4,1.7l36.6-14.8c1.6-0.6,2.4-2.5,1.7-4
		c-0.6-1.6-2.5-2.4-4-1.7L426.8,67.3z"/>
	<path class="st22" d="M336.8,86c-2.7,1.1-4,4.2-2.9,6.9l11.1,27.4c1.1,2.7,4.2,4,6.9,2.9l38.3-15.5c2.7-1.1,4-4.2,2.9-6.9L382,73.5
		c-1.1-2.7-4.2-4-6.9-2.9L336.8,86z"/>
	<path class="st23" d="M336.8,86c-2.7,1.1-4,4.2-2.9,6.9l11.1,27.4c1.1,2.7,4.2,4,6.9,2.9l38.3-15.5c2.7-1.1,4-4.2,2.9-6.9L382,73.5
		c-1.1-2.7-4.2-4-6.9-2.9L336.8,86z"/>
	<path class="st24" d="M349.7,91.3c-1.4,0.6-2,2.1-1.5,3.5L354,109c0.6,1.4,2.1,2,3.5,1.5l19.8-8c1.4-0.6,2-2.1,1.5-3.5L373,84.8
		c-0.6-1.4-2.1-2-3.5-1.5L349.7,91.3z"/>
	<path class="st23" d="M349.7,91.3c-1.4,0.6-2,2.1-1.5,3.5L354,109c0.6,1.4,2.1,2,3.5,1.5l19.8-8c1.4-0.6,2-2.1,1.5-3.5L373,84.8
		c-0.6-1.4-2.1-2-3.5-1.5L349.7,91.3z"/>
	<path class="st22" d="M370.4,86.8c-3.1,1.2-4.5,4.7-3.3,7.8c1.2,3.1,4.7,4.5,7.8,3.3l37-15c3.1-1.2,4.5-4.7,3.3-7.8
		c-1.2-3.1-4.7-4.5-7.8-3.3L370.4,86.8z"/>
	<path class="st23" d="M370.4,86.8c-3.1,1.2-4.5,4.7-3.3,7.8c1.2,3.1,4.7,4.5,7.8,3.3l37-15c3.1-1.2,4.5-4.7,3.3-7.8
		c-1.2-3.1-4.7-4.5-7.8-3.3L370.4,86.8z"/>
	<path class="st25" d="M371.9,89.5c-1.6,0.6-2.4,2.5-1.7,4c0.6,1.6,2.5,2.4,4,1.7l36.6-14.8c1.6-0.6,2.4-2.5,1.7-4
		c-0.6-1.6-2.5-2.4-4-1.7L371.9,89.5z"/>
	<path class="st22" d="M281.6,108.4c-2.7,1.1-4,4.2-2.9,6.9l11.1,27.4c1.1,2.7,4.2,4,6.9,2.9l38.3-15.5c2.7-1.1,4-4.2,2.9-6.9
		l-11.1-27.4c-1.1-2.7-4.2-4-6.9-2.9L281.6,108.4z"/>
	<path class="st23" d="M281.6,108.4c-2.7,1.1-4,4.2-2.9,6.9l11.1,27.4c1.1,2.7,4.2,4,6.9,2.9l38.3-15.5c2.7-1.1,4-4.2,2.9-6.9
		l-11.1-27.4c-1.1-2.7-4.2-4-6.9-2.9L281.6,108.4z"/>
	<path class="st24" d="M294.4,113.6c-1.4,0.6-2,2.1-1.5,3.5l5.7,14.2c0.6,1.4,2.1,2,3.5,1.5l19.8-8c1.4-0.6,2-2.1,1.5-3.5l-5.7-14.2
		c-0.6-1.4-2.1-2-3.5-1.5L294.4,113.6z"/>
	<path class="st23" d="M294.4,113.6c-1.4,0.6-2,2.1-1.5,3.5l5.7,14.2c0.6,1.4,2.1,2,3.5,1.5l19.8-8c1.4-0.6,2-2.1,1.5-3.5l-5.7-14.2
		c-0.6-1.4-2.1-2-3.5-1.5L294.4,113.6z"/>
	<path class="st22" d="M315.5,109c-3.1,1.2-4.5,4.7-3.3,7.8c1.2,3.1,4.7,4.5,7.8,3.3l37-15c3.1-1.2,4.5-4.7,3.3-7.8
		c-1.2-3.1-4.7-4.5-7.8-3.3L315.5,109z"/>
	<path class="st23" d="M315.5,109c-3.1,1.2-4.5,4.7-3.3,7.8c1.2,3.1,4.7,4.5,7.8,3.3l37-15c3.1-1.2,4.5-4.7,3.3-7.8
		c-1.2-3.1-4.7-4.5-7.8-3.3L315.5,109z"/>
	<path class="st25" d="M317,111.7c-1.6,0.6-2.4,2.5-1.7,4c0.6,1.6,2.5,2.4,4,1.7l36.6-14.8c1.6-0.6,2.4-2.5,1.7-4
		c-0.6-1.6-2.5-2.4-4-1.7L317,111.7z"/>
	<path class="st22" d="M227.7,130.1c-2.7,1.1-4,4.2-2.9,6.9l11.1,27.4c1.1,2.7,4.2,4,6.9,2.9l38.3-15.5c2.7-1.1,4-4.2,2.9-6.9
		l-11.1-27.4c-1.1-2.7-4.2-4-6.9-2.9L227.7,130.1z"/>
	<path class="st23" d="M227.7,130.1c-2.7,1.1-4,4.2-2.9,6.9l11.1,27.4c1.1,2.7,4.2,4,6.9,2.9l38.3-15.5c2.7-1.1,4-4.2,2.9-6.9
		l-11.1-27.4c-1.1-2.7-4.2-4-6.9-2.9L227.7,130.1z"/>
	<path class="st24" d="M240.6,135.4c-1.4,0.6-2,2.1-1.5,3.5l5.7,14.2c0.6,1.4,2.1,2,3.5,1.5l19.8-8c1.4-0.6,2-2.1,1.5-3.5l-5.7-14.2
		c-0.6-1.4-2.1-2-3.5-1.5L240.6,135.4z"/>
	<path class="st23" d="M240.6,135.4c-1.4,0.6-2,2.1-1.5,3.5l5.7,14.2c0.6,1.4,2.1,2,3.5,1.5l19.8-8c1.4-0.6,2-2.1,1.5-3.5l-5.7-14.2
		c-0.6-1.4-2.1-2-3.5-1.5L240.6,135.4z"/>
	<path class="st22" d="M260.9,131.1c-3.1,1.2-4.5,4.7-3.3,7.8c1.2,3.1,4.7,4.5,7.8,3.3l37-15c3.1-1.2,4.5-4.7,3.3-7.8
		c-1.2-3.1-4.7-4.5-7.8-3.3L260.9,131.1z"/>
	<path class="st23" d="M260.9,131.1c-3.1,1.2-4.5,4.7-3.3,7.8c1.2,3.1,4.7,4.5,7.8,3.3l37-15c3.1-1.2,4.5-4.7,3.3-7.8
		c-1.2-3.1-4.7-4.5-7.8-3.3L260.9,131.1z"/>
	<path class="st25" d="M262.4,133.8c-1.6,0.6-2.4,2.5-1.7,4c0.6,1.6,2.5,2.4,4,1.7l36.6-14.8c1.6-0.6,2.4-2.5,1.7-4
		c-0.6-1.6-2.5-2.4-4-1.7L262.4,133.8z"/>
	<path class="st22" d="M172.4,152.5c-2.7,1.1-4,4.2-2.9,6.9l11.1,27.4c1.1,2.7,4.2,4,6.9,2.9l38.3-15.5c2.7-1.1,4-4.2,2.9-6.9
		l-11.1-27.4c-1.1-2.7-4.2-4-6.9-2.9L172.4,152.5z"/>
	<path class="st23" d="M172.4,152.5c-2.7,1.1-4,4.2-2.9,6.9l11.1,27.4c1.1,2.7,4.2,4,6.9,2.9l38.3-15.5c2.7-1.1,4-4.2,2.9-6.9
		l-11.1-27.4c-1.1-2.7-4.2-4-6.9-2.9L172.4,152.5z"/>
	<path class="st24" d="M185.3,157.7c-1.4,0.6-2,2.1-1.5,3.5l5.7,14.2c0.6,1.4,2.1,2,3.5,1.5l19.8-8c1.4-0.6,2-2.1,1.5-3.5l-5.7-14.2
		c-0.6-1.4-2.1-2-3.5-1.5L185.3,157.7z"/>
	<path class="st23" d="M185.3,157.7c-1.4,0.6-2,2.1-1.5,3.5l5.7,14.2c0.6,1.4,2.1,2,3.5,1.5l19.8-8c1.4-0.6,2-2.1,1.5-3.5l-5.7-14.2
		c-0.6-1.4-2.1-2-3.5-1.5L185.3,157.7z"/>
	<path class="st22" d="M206,153.2c-3.1,1.2-4.5,4.7-3.3,7.8c1.2,3.1,4.7,4.5,7.8,3.3l37-15c3.1-1.2,4.5-4.7,3.3-7.8
		c-1.2-3.1-4.7-4.5-7.8-3.3L206,153.2z"/>
	<path class="st23" d="M206,153.2c-3.1,1.2-4.5,4.7-3.3,7.8c1.2,3.1,4.7,4.5,7.8,3.3l37-15c3.1-1.2,4.5-4.7,3.3-7.8
		c-1.2-3.1-4.7-4.5-7.8-3.3L206,153.2z"/>
	<path class="st25" d="M207.5,156c-1.6,0.6-2.4,2.5-1.7,4c0.6,1.6,2.5,2.4,4,1.7l36.6-14.8c1.6-0.6,2.4-2.5,1.7-4
		c-0.6-1.6-2.4-2.4-4-1.7L207.5,156z"/>
	<path class="st22" d="M117.1,174.8c-2.7,1.1-4,4.2-2.9,6.9l11.1,27.4c1.1,2.7,4.2,4,6.9,2.9l38.3-15.5c2.7-1.1,4-4.2,2.9-6.9
		l-11.1-27.4c-1.1-2.7-4.2-4-6.9-2.9L117.1,174.8z"/>
	<path class="st23" d="M117.1,174.8c-2.7,1.1-4,4.2-2.9,6.9l11.1,27.4c1.1,2.7,4.2,4,6.9,2.9l38.3-15.5c2.7-1.1,4-4.2,2.9-6.9
		l-11.1-27.4c-1.1-2.7-4.2-4-6.9-2.9L117.1,174.8z"/>
	<path class="st24" d="M130,180c-1.4,0.6-2,2.1-1.5,3.5l5.7,14.2c0.6,1.4,2.1,2,3.5,1.5l19.8-8c1.4-0.6,2-2.1,1.5-3.5l-5.7-14.2
		c-0.6-1.4-2.1-2-3.5-1.5L130,180z"/>
	<path class="st23" d="M130,180c-1.4,0.6-2,2.1-1.5,3.5l5.7,14.2c0.6,1.4,2.1,2,3.5,1.5l19.8-8c1.4-0.6,2-2.1,1.5-3.5l-5.7-14.2
		c-0.6-1.4-2.1-2-3.5-1.5L130,180z"/>
	<path class="st22" d="M150.7,174.5c-3.1,1.2-4.5,4.7-3.3,7.8c1.2,3.1,4.7,4.5,7.8,3.3l37-15c3.1-1.2,4.5-4.7,3.3-7.8
		c-1.2-3.1-4.7-4.5-7.8-3.3L150.7,174.5z"/>
	<path class="st23" d="M150.7,174.5c-3.1,1.2-4.5,4.7-3.3,7.8c1.2,3.1,4.7,4.5,7.8,3.3l37-15c3.1-1.2,4.5-4.7,3.3-7.8
		c-1.2-3.1-4.7-4.5-7.8-3.3L150.7,174.5z"/>
	<path class="st25" d="M152.2,177.2c-1.6,0.6-2.4,2.5-1.7,4c0.6,1.6,2.5,2.4,4,1.7l36.6-14.8c1.6-0.6,2.4-2.5,1.7-4
		c-0.6-1.6-2.4-2.4-4-1.7L152.2,177.2z"/>
	<path class="st22" d="M60.9,196.4c-2.7,1.1-4,4.2-2.9,6.9L69,230.6c1.1,2.7,4.2,4,6.9,2.9l38.3-15.5c2.7-1.1,4-4.2,2.9-6.9
		l-11.1-27.4c-1.1-2.7-4.2-4-6.9-2.9L60.9,196.4z"/>
	<path class="st23" d="M60.9,196.4c-2.7,1.1-4,4.2-2.9,6.9L69,230.6c1.1,2.7,4.2,4,6.9,2.9l38.3-15.5c2.7-1.1,4-4.2,2.9-6.9
		l-11.1-27.4c-1.1-2.7-4.2-4-6.9-2.9L60.9,196.4z"/>
	<path class="st24" d="M73.8,201.6c-1.4,0.6-2,2.1-1.5,3.5l5.7,14.2c0.6,1.4,2.1,2,3.5,1.5l19.8-8c1.4-0.6,2-2.1,1.5-3.5l-5.7-14.2
		c-0.6-1.4-2.1-2-3.5-1.5L73.8,201.6z"/>
	<path class="st23" d="M73.8,201.6c-1.4,0.6-2,2.1-1.5,3.5l5.7,14.2c0.6,1.4,2.1,2,3.5,1.5l19.8-8c1.4-0.6,2-2.1,1.5-3.5l-5.7-14.2
		c-0.6-1.4-2.1-2-3.5-1.5L73.8,201.6z"/>
	<path class="st22" d="M94.8,197c-3.1,1.2-4.5,4.7-3.3,7.8s4.7,4.5,7.8,3.3l37-15c3.1-1.2,4.5-4.7,3.3-7.8c-1.2-3.1-4.7-4.5-7.8-3.3
		L94.8,197z"/>
	<path class="st23" d="M94.8,197c-3.1,1.2-4.5,4.7-3.3,7.8s4.7,4.5,7.8,3.3l37-15c3.1-1.2,4.5-4.7,3.3-7.8c-1.2-3.1-4.7-4.5-7.8-3.3
		L94.8,197z"/>
	<path class="st25" d="M96.3,199.7c-1.6,0.6-2.4,2.5-1.7,4c0.6,1.6,2.5,2.4,4,1.7l36.6-14.8c1.6-0.6,2.4-2.5,1.7-4
		c-0.6-1.6-2.4-2.4-4-1.7L96.3,199.7z"/>
	<path class="st22" d="M7,218.2c-2.7,1.1-4,4.2-2.9,6.9l11.1,27.4c1.1,2.7,4.2,4,6.9,2.9l38.3-15.5c2.7-1.1,4-4.2,2.9-6.9
		l-11.1-27.4c-1.1-2.7-4.2-4-6.9-2.9L7,218.2z"/>
	<path class="st23" d="M7,218.2c-2.7,1.1-4,4.2-2.9,6.9l11.1,27.4c1.1,2.7,4.2,4,6.9,2.9l38.3-15.5c2.7-1.1,4-4.2,2.9-6.9
		l-11.1-27.4c-1.1-2.7-4.2-4-6.9-2.9L7,218.2z"/>
	<path class="st24" d="M19.9,223.4c-1.4,0.6-2,2.1-1.5,3.5l5.7,14.2c0.6,1.4,2.1,2,3.5,1.5l19.8-8c1.4-0.6,2-2.1,1.5-3.5l-5.7-14.2
		c-0.6-1.4-2.1-2-3.5-1.5L19.9,223.4z"/>
	<path class="st23" d="M19.9,223.4c-1.4,0.6-2,2.1-1.5,3.5l5.7,14.2c0.6,1.4,2.1,2,3.5,1.5l19.8-8c1.4-0.6,2-2.1,1.5-3.5l-5.7-14.2
		c-0.6-1.4-2.1-2-3.5-1.5L19.9,223.4z"/>
	<path class="st22" d="M40.2,219.1c-3.1,1.2-4.5,4.7-3.3,7.8c1.2,3.1,4.7,4.5,7.8,3.3l37-15c3.1-1.2,4.5-4.7,3.3-7.8
		c-1.2-3.1-4.7-4.5-7.8-3.3L40.2,219.1z"/>
	<path class="st23" d="M40.2,219.1c-3.1,1.2-4.5,4.7-3.3,7.8c1.2,3.1,4.7,4.5,7.8,3.3l37-15c3.1-1.2,4.5-4.7,3.3-7.8
		c-1.2-3.1-4.7-4.5-7.8-3.3L40.2,219.1z"/>
	<path class="st25" d="M41.7,221.8c-1.6,0.6-2.4,2.4-1.7,4c0.6,1.6,2.5,2.4,4,1.7l36.6-14.8c1.6-0.6,2.4-2.5,1.7-4
		c-0.6-1.6-2.4-2.4-4-1.7L41.7,221.8z"/>
</g>
<g>
	<defs>
		<rect id="SVGID_15_" x="-9.3" y="-28" width="612.7" height="379.9"/>
	</defs>
	<clipPath id="SVGID_16_">
		<use xlink:href="#SVGID_15_"  style="overflow:visible;"/>
	</clipPath>
	<path class="st26" d="M358.8,182.6c2.3,4.5,3.7,9.3,5.5,14c-1.1,0.1-3.6,0.4-3.8,0.4c-3.4,0-3.4,0-1.8,3.2c0.9,1.8,4.3,10.1,1,15.8
		c-1.2,2.9-2.8,5.5-4.8,7.9c-4,4.1-8.5,6.4-9.5,6.8c-5.8,2.3-11.8,3.3-18.1,3.5c-13.2,0.5-26.4,0.2-39.5,0.4
		c-4.9,0.1-9.5-0.9-14-2.8c-1.6-0.7-3.2-0.9-4.9-0.3c-5.4,1.7-11,2.1-16.7,2.2c-11.7,0.2-23.4,0.7-35,0.6
		c-5.7,0.1-11.2-1.1-16.5-3.3c-8.2-5.2-10.5-10.1-11.7-11.8c-1.7-4.2-2.8-8.5-2.3-13c0.4-3.3,1.3-6.5,2.8-9.8
		c-2.5,0.2-4.6,0.3-6.8,0.5c-0.7-0.1-1.8-0.2-1.2-1.2c1.2-1.8,2.8-8.1,3.1-9.1c0.7-1.6,1.5-3.1,2.3-4.6c1.2-2.4-1.7-4.1-1.9-4.2
		c-0.6-0.4-5.6-4.3-6.3-4.9c-1.9-2.1-1.9-2.1,0.6-4.6c1.6-1.5,3.5-2.8,4.9-4.4c0.2-0.2,3.3-2.7,4.4-4.1c0.2-0.3,0.4-0.7,0.4-1
		c-0.1-0.8-0.8-2.6-0.9-2.8c-0.9-2.8-1.6-5.7-1.9-8.7c0-0.2-0.3-6.8-0.3-8c-1.6-9.2,0.7-25.3,1.2-26.7c0.9-2.9,0.3-5.4-1.5-7.9
		c-2.2-3.2-4-6.6-5.9-10c-1.4-2-2.7-4.2-3.5-6.6c-0.5-1.6-1.2-3.1-1.6-4.7c-0.2-0.7-1.9-10.4-2.4-14.6c-0.2-7.4-0.6-14.9,0.8-22.2
		c0.2-0.9,3.3-11.5,5.1-15.9c0.4-1,0.8-2,1.2-3c2.5-5.4,4-6.2,10-6.1c18.9,0.4,35.5,6.8,50,19.3c-1.9-5-3.8-9.9-5.9-15.4
		c7.3,3.2,14,6.2,20.8,9.2c6,2.7,12,5.5,18,8.3c1.5,0.7,2.5,0.5,3.8-0.6c8.5-7.3,17-14.5,25.6-21.7c0.4,1.4,0.3,2.8,0.1,4.2
		c-0.3,7.6-0.5,15.1-0.8,23.1c1.3-1.4,2.4-2.5,3.4-3.7c12.8-13.4,28.4-20.7,46.8-22.4c3.3-0.3,6.7-0.4,10-0.3c1.1,0,1.8,0.4,2.6,1.2
		c2.9,3,4.4,6.7,5.6,10.6c1.2,4,4.1,13.8,4.7,18.5c0.6,4.8,0.6,15.9,0.4,19.3c-0.8,4.9-1.7,9.8-3.2,14.6c-0.1,0.4-1.4,3.5-2,4.6
		c-1,1.8-1.8,3.8-3,5.6c-0.4,0.7-4.9,8-6.6,10.5c-0.5,0.8-1.2,1.6-1.1,2.7c0,0.2,0,0.4,0.1,0.7c0.8,2.9,1.4,6,2,8.9
		c0.1,0.4,0.5,4.7,0.6,7.5c0.1,6.7-0.3,12.7-1,19.2c-0.5,4.3-1.2,8.4-2.9,12.4c-0.5,1.2-0.4,1.9,0.5,2.8c1.9,1.9,3.8,4,5.9,5.6
		c0.7,0.6,5.2,2.9,5,4.4c-0.1,1.7-1.8,2.6-3.3,3.4C364.3,174.6,356.9,178.7,358.8,182.6"/>
	<path class="st27" d="M348.2,185.7c-2.8-0.4-5.6,0-8.4-1.3c-10.2-4.7-21.1-6.7-32.3-7.4c-8.2-0.5-16.5-0.5-24.5,1.9
		c-11.3,3.4-19.8,9.9-23.7,21.5c-0.6,1.7-0.9,3.5-1.2,5.3c-0.2,1.1-0.6,1.3-1.5,1c-6.3-1.4-12.6-3-18.4-5.9
		c-1.5-0.7-2.6-1.8-3.9-2.7c-5.3-3.7-11-4-17-2.5c-1.6,0.4-3.4,1.4-4.9,1c-1.7-0.5-1.1-2.8-1.7-4.3c-1.9-4.7-5.7-7.2-10.8-6.7
		c-0.8,0.1-1.5,0.3-2.4,0c1.1-2.9,3.4-5.5,2.8-8.9c-0.6-3.4-3.2-5.2-6.1-6.8c1.5-1.8,3-3.5,4.5-5.2c2-2.5,2.5-5.2,1.3-8.2
		c-4.1-10.2-3.9-20.9-3.4-31.6c0.3-5.3,1.1-10.6,2.4-15.8c0.5-2.2-0.1-4.1-1.3-6.1c-4.5-7.2-9.4-14.3-12.3-22.4
		c-4-10.9-3.4-22-1.2-33.2c0.9-4.6,2.1-9.2,3.6-13.7c0.5-1.4,1.3-2,2.8-1.9c16.4,0.8,30.5,6.7,42.3,18.1c3,2.9,5.8,6,9.1,8.7
		c1.2,1,2.5,1.8,4,2.1c4.4,0.8,7.8-2,7.9-6.5c0.1-2.9-1-5.6-1.8-8.8c4.6,2.1,9,4.1,13.3,6.1c2.1,1,4.1,1.9,6.2,2.9
		c2.5,1.2,4.9,0.9,7-0.9c2.8-2.4,5.7-4.9,8.5-7.3c0.7-0.6,1.5-1.2,2.5-2c0,1.7,0,3.1,0,4.5c0,1.9-0.2,3.8,0.4,5.7
		c1.7,5.2,7.3,10,14.1,4.4c3-2.5,5.5-5.5,8.2-8.3c8.9-9,19.5-14.7,31.9-17.2c3.2-0.7,6.5-0.8,9.7-1.3c2.3-0.4,3.6,0.5,4.3,2.8
		c2.7,8.5,4.4,17.1,4.8,26c0.5,9.7-1.3,18.9-5.8,27.6c-2.7,5.1-5.8,9.8-9.2,14.5c-1.7,2.3-2.1,4.6-1.3,7.3c3.6,12.4,3.8,25.1,2,37.8
		c-0.4,2.7-1.1,5.2-2.4,7.6c-1.7,3.3-1.3,6.3,0.9,9.2c1.1,1.4,2.2,2.7,3.4,4c0.7,0.7,1,1.1-0.1,1.9c-5.8,4.2-6.3,6.7-3.2,13.2
		C347.8,184.3,348.3,184.8,348.2,185.7"/>
	<path class="st28" d="M216,88.7c-1.5,2.4-3.2,4.7-4.4,7.2c-1,2-1.9,1.1-2.9,0.3c-3.7-3.3-6.8-7.2-9.3-11.5
		c-4.1-6.8-7.1-13.9-8.4-21.8c-1.2-7.2-0.6-14.2,1.8-21.1c0.4-1.1,0.9-1.6,2.3-1.4c7.4,1,13.5,4.8,19.3,9.2
		c7.1,5.5,12.8,12.3,18.3,19.3c0.7,0.9,0.9,1.6-0.1,2.3c-1.3,1.1-2.6,2.1-3.9,3.2c-1.4-1.4-2.1-3.3-3.1-5c-1-1.8-2.4-2.7-4.3-2.1
		c-3,1-5.1-0.5-7.2-2.3c-4.3-3.7-8.6-7.2-13.3-11.1c2.8,6,5.1,11.7,7.8,17.2c2.3,4.8,2.3,4.8-2.6,6.3c-0.8,0.2-1.6,0.3-2.6,0.9
		c1.1,1.2,2.3,2,3.5,2.9c2.5,1.9,4.9,3.8,7.4,5.7C215,87.4,215.9,87.7,216,88.7"/>
	<path class="st28" d="M316.7,74c-1.1-0.9-2.2-1.9-3.4-2.6c-1.3-0.7-1.1-1.5-0.4-2.4c7.1-8.9,14.6-17.5,24.5-23.5
		c4.2-2.5,8.6-4.6,13.5-5.1c1.1-0.1,1.6,0.1,1.9,1c2.2,6.4,2.9,13,2.1,19.7c-0.8,6.8-2.9,13.2-6.1,19.2c-3,5.8-6.8,11.2-11.6,15.6
		c-2,1.8-2.1,1.8-3.4-0.5c-1.3-2.3-2.8-4.5-4.2-6.8c1.2-1.9,3.1-2.9,4.8-4.2c2.6-2,5.2-3.9,7.9-6.2c-1.9-0.7-3.5-1.1-5.1-1.6
		c-2.1-0.6-2.3-1.1-1.4-3.2c2.9-6.3,5.7-12.7,8.8-19.5c-3.8,2.9-6.9,5.7-10.2,8.4c-0.9,0.8-2,1.5-2.8,2.3c-2,2.1-4.2,3.3-7.3,2.5
		c-1.9-0.5-3.3,0.3-4.3,2.1C319,71.1,318.6,73.1,316.7,74"/>
	<path class="st26" d="M279.9,116.1c6.4,0.3,11.6,2.3,15.8,6.7c0.9,1,1.3,1.2,2.3,0c5.6-6.3,14.4-8.3,22.6-5.3
		c7.6,2.7,13.3,10.4,13.7,18.4c0.1,1.8-0.2,3.3-2.2,3.6c-2.1,0.3-2.9-1.1-3.2-3c-0.9-6.7-4.1-11.7-10.8-14
		c-6.6-2.2-13.7,0.1-17.2,5.5c-0.7,1-0.9,2-0.4,3.2c0.7,1.6,0.9,3.4,1,5.1c0.1,2.1-1.1,3.3-3.2,3.1c-0.3,0-0.6-0.2-0.9-0.3
		c-4.5-0.2-5-0.9-4.3-5.5c0.2-1.5,1.4-3.1,0.6-4.6c-1.2-2.3-3.2-4.1-5.5-5.4c-10.2-5.7-21.6,0.3-22.6,12c0,0.5-0.1,1.1-0.3,1.6
		c-0.4,1.6-1.4,2.4-3,2.1c-1.5-0.2-2.3-1.2-2.3-2.7c0-8.6,4.9-18.1,16.3-20.3C277.6,116.3,279,116.2,279.9,116.1"/>
	<path class="st29" d="M316.7,74c0.9-1.6,1.8-3.2,2.7-4.7c1.7-2.8,2.5-3.3,5.7-2.4c2.1,0.6,3.5-0.2,5-1.4c4.7-4,9.5-8,14.3-12
		c0.2-0.2,0.5-0.3,1-0.6c-0.5,2.3-1.5,4.1-2.3,5.9c-2.3,5.2-4.6,10.3-7,15.4c-0.7,1.4,0,1.7,1,2c1.7,0.5,3.4,0.9,5,1.4
		c0.7,0.2,1.6,0.5,0.5,1.3c-4.3,3.3-8.7,6.6-13.1,9.8C325.9,83.2,321.2,78.7,316.7,74"/>
	<path class="st29" d="M216,88.7c-4.5-3.4-9.1-6.9-13.9-10.5c2.1-1.1,4.1-1.4,6-1.9c1.4-0.4,2.1-0.6,1.3-2.4c-3.1-6.7-6-13.5-9-20.2
		c-0.1-0.3-0.4-0.5,0-1c4.6,3.8,9.2,7.6,13.8,11.5c2.2,1.9,4.1,3.7,7.4,2.6c2.1-0.7,3.8,0.2,4.7,2.4c0.8,1.8,2.2,3.3,2.6,5.3
		C223.9,78.6,219.9,83.6,216,88.7"/>
</g>
</svg>
